<svg width="521" height="131" viewBox="0 0 521 131" fill="none" xmlns="http://www.w3.org/2000/svg">
<path d="M42.1282 130.611L25.2783 114.297V16.315L42.1282 0V130.611Z" fill="white"/>
<path d="M16.8498 106.139L0 89.8237V40.7916L16.8498 24.4766V106.139Z" fill="white"/>
<path d="M50.5536 106.139L67.4887 89.8237V40.7916L50.5536 24.4766V106.139Z" fill="#00B2E3"/>
<path d="M216.093 62.3093C217.867 60.7025 219.252 58.7368 220.152 56.5524C221.05 54.3679 221.441 52.0183 221.295 49.671C221.295 38.154 213.53 32.5564 197.506 32.5564H166.613V97.8207H200.725C217.247 97.8207 226.83 90.7021 226.83 77.7465C226.927 74.4105 225.943 71.1287 224.018 68.3606C222.093 65.5925 219.322 63.4766 216.093 62.3093ZM198.831 59.0281H178.507V43.0303H197.919C208.329 43.0303 209.235 46.5507 209.235 50.0709C209.235 55.8294 205.847 58.5501 198.745 58.5501L198.831 59.0281ZM178.507 69.1066H199.738C212.956 69.1066 214.689 73.4265 214.689 77.6639C214.689 84.3828 210.393 87.1035 199.657 87.1035H178.507V69.1066Z" fill="white"/>
<path d="M320.258 95.4219C319.409 75.2098 317.48 55.0533 314.477 35.0341V32.9567H303.655L279.965 74.0659L256.175 32.635H245.498V34.7124C242.536 54.8406 240.661 75.1049 239.882 95.4219V97.9038H251.53V95.583C251.733 81.0842 252.81 66.609 254.753 52.2313L276.643 89.1727H283.914L305.724 52.2313C307.296 65.1086 308.534 81.4238 308.947 95.583V97.9038H320.586L320.258 95.4219Z" fill="white"/>
<path d="M134.806 60.5482L123.904 58.31C115.645 56.6324 112.754 54.6289 112.754 50.3133C112.754 45.9977 118.369 42.8728 127.705 42.8728C133.404 43.0114 139.018 44.2342 144.228 46.4714L151.993 39.2743L150.507 38.4746C143.549 34.5902 135.646 32.5753 127.616 32.6379C111.094 32.6379 100.936 39.6785 100.936 50.4567C100.936 59.9744 107.377 65.8155 120.596 68.3711L131.911 70.6919C142.401 72.7693 142.401 76.8502 142.401 78.6886C142.401 84.2863 136.454 87.6457 126.539 87.6457C119.258 87.5271 112.126 85.6284 105.806 82.1262L98.288 89.1669L99.4459 89.9665C107.67 95.2482 117.335 98.0326 127.203 97.9632C143.725 97.9632 153.882 90.6837 153.882 78.4452C153.882 68.8491 147.855 63.4079 134.469 60.6873" fill="white"/>
<path d="M365.443 57.5062C360.787 57.6438 356.323 59.3323 352.804 62.2868V41.5909H347.516V95.8296C353.263 97.0706 359.134 97.6867 365.021 97.6682C367.724 97.6805 370.402 97.1623 372.893 96.1445C375.383 95.1267 377.634 93.6304 379.511 91.7469C381.386 89.8627 382.849 87.6296 383.809 85.1828C384.768 82.7359 385.206 80.126 385.094 77.511C385.214 74.9348 384.796 72.3616 383.863 69.9462C382.932 67.5306 381.504 65.3226 379.667 63.4551C377.831 61.5876 375.623 60.0989 373.177 59.0789C370.731 58.0587 368.097 57.5282 365.434 57.5192L365.443 57.5062ZM365.443 92.709C361.202 92.7481 356.967 92.3723 352.804 91.5878V67.5802C354.372 65.8284 356.314 64.4275 358.496 63.4746C360.678 62.5215 363.049 62.0391 365.443 62.0608C367.532 61.9693 369.617 62.3153 371.556 63.075C373.493 63.8348 375.24 64.9905 376.675 66.4633C378.109 67.9361 379.199 69.6913 379.87 71.609C380.54 73.5269 380.776 75.5621 380.56 77.5761C380.726 79.5611 380.455 81.5578 379.76 83.4326C379.067 85.3075 377.968 87.0173 376.536 88.448C375.106 89.8787 373.375 90.9973 371.463 91.7291C369.55 92.4609 367.497 92.7891 365.443 92.6917V92.709Z" fill="#00B2E3"/>
<path d="M429.217 82.1437V58.1492H425.353L424.773 60.9482C420.742 58.5948 416.1 57.4023 411.394 57.5104C408.691 57.4875 406.012 57.9953 403.518 59.0032C401.024 60.0111 398.766 61.4981 396.883 63.3744C394.999 65.2508 393.528 67.4774 392.558 69.9199C391.588 72.3623 391.14 74.9698 391.24 77.5848C391.046 80.1788 391.409 82.7836 392.307 85.2346C393.207 87.6856 394.621 89.9292 396.46 91.8238C398.301 93.7184 400.528 95.2222 402.999 96.2413C405.47 97.2603 408.133 97.7711 410.818 97.7413C413.438 97.8616 416.053 97.4314 418.484 96.4793C420.916 95.5284 423.106 94.0792 424.904 92.2309L426.062 97.1116H430.999V96.5512C429.98 91.8069 429.383 86.9867 429.217 82.1437ZM410.815 92.7002C408.86 92.6591 406.936 92.2257 405.163 91.4274C403.392 90.629 401.809 89.4833 400.518 88.0626C399.226 86.6418 398.254 84.977 397.661 83.1735C397.069 81.3699 396.87 79.4668 397.075 77.5848C396.927 75.637 397.197 73.6806 397.872 71.84C398.545 69.9993 399.608 68.3145 400.99 66.8929C402.373 65.4712 404.047 64.3438 405.905 63.5822C407.762 62.8207 409.763 62.4415 411.78 62.4692C416.258 62.4202 420.653 63.6442 424.419 65.9895V84.947C423.436 87.5749 421.536 89.788 419.048 91.2043C416.558 92.6205 413.637 93.1513 410.787 92.7046L410.815 92.7002Z" fill="#00B2E3"/>
<path d="M458.128 57.5072C453.286 57.6917 448.653 59.4683 444.994 62.5442L444.416 58.1461H440.286V97.0992H445.489V67.9812C446.951 66.2741 448.781 64.8961 450.85 63.9429C452.919 62.9897 455.177 62.4842 457.468 62.4617C459.085 62.2111 460.742 62.3367 462.298 62.8281C463.856 63.3196 465.27 64.1627 466.424 65.288C467.579 66.4132 468.44 67.7881 468.936 69.2992C469.433 70.8105 469.551 72.4144 469.282 73.9787V97.0955H474.484V73.1051C474.694 70.9853 474.414 68.8467 473.663 66.8452C472.912 64.8437 471.708 63.0296 470.142 61.5353C468.575 60.041 466.683 58.9039 464.604 58.207C462.526 57.5102 460.314 57.2711 458.128 57.5072Z" fill="#00B2E3"/>
<path d="M496.206 73.8255L519.097 57.8277H510.838C509.043 59.0272 493.823 68.784 490.847 71.2656V41.5909H485.631V97.0991H490.834V75.4031C493.89 79.0842 511.318 94.999 513.468 96.9206H521L496.206 73.8255Z" fill="#00B2E3"/>
</svg>
