<svg width="708" height="637" viewBox="0 0 708 637" fill="none" xmlns="http://www.w3.org/2000/svg">
<g style="mix-blend-mode:lighten" clip-path="url(#clip0_126_124)">
<path d="M350.066 524.204C345.712 525.608 341.088 526.174 337.48 525.305L154.521 485.96C150.913 485.09 148.315 483.34 147.397 480.494C146.317 477.145 147.804 473.154 151.181 469.293L390.519 204.701C397.047 197.422 408.942 193.032 417.272 194.782L600.23 234.127C603.839 234.997 606.437 236.747 607.354 239.593C608.434 242.942 606.948 246.933 603.571 250.794L364.232 515.385C360.687 519.301 355.425 522.476 350.066 524.204ZM404.955 196.72C399.763 198.394 394.669 201.515 391.238 205.209L151.899 469.801C148.636 473.44 147.263 477.21 148.234 480.224C149.044 482.735 151.253 484.426 154.808 485.128L337.766 524.473C345.707 526.164 357.435 521.828 363.849 514.77L603.187 250.178C606.451 246.538 607.824 242.769 606.852 239.755C606.042 237.243 603.833 235.553 600.279 234.85L417.32 195.506C413.598 194.858 409.309 195.316 404.955 196.72Z" fill="#42E8E0"/>
<path d="M593.777 198.681L572.913 209.659L410.777 174.691C402.615 172.887 390.887 177.223 384.36 184.503L171.578 419.645L134.549 438.977L139.03 452.874C139.839 455.385 142.156 457.411 145.878 458.059L328.837 497.404C336.999 499.208 348.727 494.872 355.254 487.593L594.593 223.001C597.97 219.14 599.343 215.37 598.371 212.356L593.945 198.627L593.777 198.681Z" fill="url(#paint0_linear_126_124)"/>
<path d="M324.198 483.56L141.239 444.216C133.077 442.411 131.701 435.277 138.115 428.218L377.621 163.573C384.035 156.515 395.93 152.125 404.038 153.762L586.997 193.106C595.159 194.911 596.535 202.045 590.121 209.104L350.615 473.749C344.255 480.975 332.36 485.365 324.198 483.56Z" fill="#24126A"/>
<path d="M590.008 209.325L350.615 473.749C344.201 480.807 332.305 485.197 324.198 483.56L141.239 444.215C138.074 443.572 135.865 441.882 134.828 439.813C135.243 442.821 137.668 445.182 141.833 446.057L324.791 485.402C332.953 487.206 344.682 482.87 351.209 475.59L590.547 210.999C594.373 206.808 595.362 202.423 594.002 199.35C594.363 202.19 593.104 205.739 590.008 209.325Z" fill="white"/>
<path opacity="0.51" d="M323.394 479.936L146.987 441.991C139.047 440.3 137.725 433.333 144.025 426.496L378.863 166.868C385.163 160.031 396.556 155.803 404.497 157.494L580.903 195.439C588.844 197.13 590.166 204.097 583.866 210.934L349.028 470.562C342.728 477.4 331.334 481.627 323.394 479.936Z" fill="#453C9E"/>
<path opacity="0.5" d="M323.394 479.936L146.987 441.991C139.047 440.3 137.725 433.333 144.025 426.496L378.863 166.868C385.163 160.031 396.556 155.803 404.497 157.494L580.903 195.439C588.844 197.13 590.166 204.097 583.866 210.934L349.028 470.562C342.728 477.4 331.334 481.627 323.394 479.936Z" fill="url(#paint1_radial_126_124)"/>
<path opacity="0.5" d="M322.167 476.086L145.761 438.141C137.82 436.45 136.498 429.483 142.798 422.646L377.636 163.017C383.936 156.18 395.33 151.953 403.27 153.644L579.677 191.589C587.617 193.28 588.939 200.247 582.639 207.084L347.801 466.712C341.501 473.549 330.108 477.777 322.167 476.086Z" fill="url(#paint2_radial_126_124)"/>
<path opacity="0.8" d="M334.419 475.65C330.064 477.054 325.775 477.512 321.999 476.696L145.593 438.751C142.039 438.049 139.554 436.077 138.69 433.399C137.665 430.217 138.93 426.113 142.361 422.419L377.366 162.737C383.612 155.732 395.34 151.396 403.335 153.255L579.741 191.2C583.296 191.902 585.78 193.874 586.644 196.553C587.669 199.734 586.405 203.838 582.974 207.532L348.082 466.993C344.705 470.855 339.61 473.976 334.419 475.65ZM322.232 475.697C329.951 477.275 341.231 473.268 347.363 466.485L582.201 206.857C585.351 203.439 586.557 199.723 585.639 196.877C584.883 194.533 582.674 192.842 579.509 192.199L403.102 154.254C395.383 152.676 384.103 156.683 377.971 163.466L143.3 423.04C140.15 426.459 138.945 430.174 139.863 433.021C140.618 435.365 142.827 437.055 145.993 437.698L322.232 475.697Z" fill="url(#paint3_linear_126_124)"/>
<g opacity="0.4">
<path d="M240.411 393.391L249.694 383.19C250.255 382.639 250.039 381.969 249.04 381.737L243.266 380.456C242.267 380.224 241.094 380.602 240.532 381.153L231.25 391.354C230.688 391.905 230.904 392.575 231.903 392.807L237.677 394.088C238.677 394.32 239.849 393.942 240.411 393.391Z" fill="#24126A"/>
<path d="M255.348 396.709L264.631 386.508C265.193 385.957 264.977 385.287 263.978 385.055L258.203 383.774C257.204 383.542 256.032 383.92 255.47 384.471L246.187 394.672C245.625 395.223 245.841 395.893 246.841 396.125L252.615 397.406C253.614 397.638 254.786 397.26 255.348 396.709Z" fill="#24126A"/>
<path d="M270.278 400.027L279.561 389.826C280.123 389.275 279.907 388.605 278.907 388.373L273.133 387.092C272.134 386.86 270.961 387.238 270.4 387.789L261.117 397.99C260.555 398.541 260.771 399.211 261.77 399.443L267.545 400.724C268.544 400.956 269.77 400.745 270.278 400.027Z" fill="#24126A"/>
<path d="M285.38 403.29L294.662 393.089C295.224 392.538 295.008 391.868 294.009 391.636L288.235 390.355C287.235 390.123 286.063 390.501 285.501 391.052L276.218 401.253C275.657 401.804 275.872 402.474 276.872 402.706L282.646 403.987C283.645 404.219 284.872 404.009 285.38 403.29Z" fill="#24126A"/>
<path d="M300.317 406.606L309.6 396.405C310.162 395.854 309.946 395.184 308.946 394.952L303.172 393.672C302.173 393.439 301.001 393.817 300.439 394.368L291.156 404.57C290.594 405.12 290.81 405.79 291.809 406.022L297.584 407.303C298.583 407.535 299.809 407.325 300.317 406.606Z" fill="#24126A"/>
<path d="M315.255 409.924L324.537 399.723C325.099 399.172 324.883 398.502 323.884 398.27L318.11 396.989C317.11 396.757 315.938 397.135 315.376 397.686L306.094 407.887C305.532 408.438 305.747 409.108 306.747 409.34L312.521 410.621C313.52 410.853 314.747 410.643 315.255 409.924Z" fill="#24126A"/>
<path d="M330.348 413.188L339.631 402.987C340.193 402.436 339.977 401.766 338.978 401.534L333.203 400.253C332.204 400.021 331.032 400.399 330.47 400.95L321.187 411.151C320.625 411.702 320.841 412.372 321.841 412.604L327.615 413.885C328.614 414.117 329.84 413.907 330.348 413.188Z" fill="#24126A"/>
<path d="M345.294 416.505L354.576 406.304C355.138 405.753 354.922 405.083 353.923 404.851L348.149 403.57C347.149 403.338 345.977 403.716 345.415 404.267L336.133 414.468C335.571 415.019 335.787 415.689 336.786 415.921L342.56 417.202C343.559 417.434 344.786 417.223 345.294 416.505Z" fill="#24126A"/>
<path d="M224.419 412.596L233.701 402.395C234.263 401.844 234.047 401.174 233.048 400.942L227.274 399.661C226.274 399.429 225.102 399.807 224.54 400.358L215.258 410.559C214.696 411.11 214.912 411.78 215.911 412.012L221.685 413.293C222.684 413.525 223.857 413.147 224.419 412.596Z" fill="#24126A"/>
<path d="M239.528 415.859L248.811 405.658C249.373 405.107 249.157 404.437 248.157 404.205L242.383 402.925C241.384 402.692 240.211 403.07 239.65 403.621L230.367 413.823C229.805 414.373 230.021 415.043 231.02 415.275L236.795 416.556C237.794 416.788 238.966 416.41 239.528 415.859Z" fill="#24126A"/>
<path d="M254.466 419.177L263.748 408.976C264.31 408.425 264.094 407.755 263.095 407.523L257.321 406.242C256.321 406.01 255.149 406.388 254.587 406.939L245.304 417.14C244.743 417.691 244.958 418.361 245.958 418.593L251.732 419.874C252.731 420.106 253.904 419.728 254.466 419.177Z" fill="#24126A"/>
<path d="M269.387 422.495L278.67 412.294C279.232 411.743 279.016 411.073 278.017 410.841L272.242 409.56C271.243 409.328 270.071 409.706 269.509 410.257L260.226 420.458C259.664 421.009 259.88 421.679 260.88 421.911L266.654 423.192C267.653 423.424 268.826 423.046 269.387 422.495Z" fill="#24126A"/>
<path d="M284.497 425.758L293.779 415.557C294.341 415.006 294.125 414.336 293.126 414.104L287.352 412.823C286.353 412.591 285.18 412.969 284.618 413.52L275.336 423.721C274.774 424.272 274.99 424.942 275.989 425.174L281.763 426.455C282.763 426.687 283.935 426.309 284.497 425.758Z" fill="#24126A"/>
<path d="M299.434 429.075L308.717 418.874C309.279 418.323 309.063 417.653 308.064 417.421L302.289 416.14C301.29 415.908 300.118 416.286 299.556 416.837L290.273 427.038C289.711 427.589 289.927 428.259 290.926 428.491L296.701 429.772C297.7 430.004 298.872 429.626 299.434 429.075Z" fill="#24126A"/>
<path d="M314.356 432.393L323.639 422.192C324.201 421.641 323.985 420.971 322.986 420.739L317.211 419.458C316.212 419.226 315.04 419.604 314.478 420.155L305.195 430.356C304.633 430.907 304.849 431.577 305.848 431.809L311.623 433.09C312.622 433.322 313.794 432.944 314.356 432.393Z" fill="#24126A"/>
<path d="M329.466 435.656L338.748 425.455C339.31 424.904 339.094 424.234 338.095 424.002L332.321 422.721C331.321 422.489 330.149 422.867 329.587 423.418L320.304 433.619C319.743 434.17 319.958 434.84 320.958 435.072L326.732 436.353C327.731 436.585 328.904 436.207 329.466 435.656Z" fill="#24126A"/>
<path d="M218.614 430.731L227.897 420.53C228.459 419.979 228.243 419.309 227.243 419.077L221.469 417.797C220.47 417.564 219.297 417.942 218.736 418.493L209.453 428.695C208.891 429.245 209.107 429.915 210.106 430.147L215.881 431.428C216.88 431.66 218.052 431.282 218.614 430.731Z" fill="#24126A"/>
<path d="M233.552 434.049L242.834 423.848C243.396 423.297 243.18 422.627 242.181 422.395L236.407 421.114C235.407 420.882 234.235 421.26 233.673 421.811L224.39 432.012C223.828 432.563 224.044 433.233 225.044 433.465L230.818 434.746C231.817 434.978 232.99 434.6 233.552 434.049Z" fill="#24126A"/>
<path d="M248.661 437.313L257.943 427.111C258.505 426.56 258.29 425.89 257.29 425.658L251.516 424.378C250.517 424.145 249.344 424.523 248.782 425.074L239.5 435.276C238.938 435.826 239.154 436.496 240.153 436.729L245.927 438.009C246.927 438.241 248.099 437.863 248.661 437.313Z" fill="#24126A"/>
<path d="M263.583 440.629L272.865 430.428C273.427 429.877 273.211 429.207 272.212 428.975L266.438 427.695C265.438 427.462 264.266 427.84 263.704 428.391L254.422 438.593C253.86 439.143 254.076 439.813 255.075 440.045L260.849 441.326C261.849 441.558 263.021 441.18 263.583 440.629Z" fill="#24126A"/>
<path d="M278.52 443.947L287.803 433.745C288.365 433.194 288.149 432.524 287.15 432.292L281.375 431.012C280.376 430.779 279.204 431.157 278.642 431.708L269.359 441.91C268.797 442.461 269.013 443.13 270.012 443.363L275.787 444.643C276.786 444.875 277.958 444.497 278.52 443.947Z" fill="#24126A"/>
<path d="M293.458 447.264L302.74 437.063C303.302 436.512 303.086 435.842 302.087 435.61L296.313 434.33C295.313 434.097 294.141 434.475 293.579 435.026L284.297 445.228C283.735 445.778 283.951 446.448 284.95 446.68L290.724 447.961C291.724 448.193 292.896 447.815 293.458 447.264Z" fill="#24126A"/>
<path d="M308.552 450.528L317.834 440.327C318.396 439.776 318.18 439.106 317.181 438.874L311.406 437.593C310.407 437.361 309.235 437.739 308.673 438.29L299.39 448.491C298.828 449.042 299.044 449.712 300.044 449.944L305.818 451.225C306.817 451.457 307.99 451.079 308.552 450.528Z" fill="#24126A"/>
</g>
<path d="M237.565 388.58C237.062 388.742 236.339 388.79 235.782 388.785L230.008 387.504C229.397 387.331 228.955 387.104 228.793 386.602C228.685 386.267 228.744 385.878 229.139 385.382L238.421 375.18C239.097 374.408 240.323 374.197 241.49 374.376L247.264 375.656C247.874 375.829 248.317 376.056 248.479 376.558C248.587 376.893 248.528 377.282 248.133 377.779L238.851 387.98C238.402 388.31 238.067 388.418 237.565 388.58ZM239.701 375.137C239.367 375.245 239.032 375.353 238.751 375.628L229.468 385.83C229.301 385.884 229.187 386.105 229.241 386.273C229.295 386.44 229.517 386.554 229.905 386.613L235.68 387.894C236.458 388.012 237.516 387.856 238.078 387.305L247.361 377.104C247.528 377.05 247.642 376.828 247.588 376.661C247.534 376.493 247.312 376.38 246.924 376.32L241.149 375.04C240.76 374.98 240.204 374.975 239.701 375.137Z" fill="#42E8E0"/>
<path d="M252.502 391.897C252 392.059 251.276 392.108 250.72 392.103L244.945 390.822C244.335 390.649 243.892 390.422 243.73 389.92C243.622 389.585 243.682 389.196 244.076 388.699L253.359 378.498C254.034 377.726 255.26 377.515 256.427 377.693L262.202 378.974C262.812 379.147 263.255 379.374 263.417 379.876C263.525 380.211 263.465 380.6 263.071 381.097L253.788 391.298C253.507 391.573 253.005 391.735 252.502 391.897ZM254.639 378.455C254.304 378.563 253.969 378.671 253.688 378.946L244.406 389.148C244.238 389.202 244.125 389.423 244.179 389.591C244.233 389.758 244.454 389.871 244.843 389.931L250.617 391.211C251.395 391.33 252.454 391.174 253.016 390.623L262.298 380.421C262.466 380.367 262.579 380.146 262.525 379.979C262.471 379.811 262.25 379.698 261.861 379.638L256.087 378.358C255.698 378.298 255.141 378.293 254.639 378.455Z" fill="#42E8E0"/>
<path d="M267.432 395.215C266.93 395.377 266.206 395.426 265.649 395.42L259.875 394.14C259.265 393.967 258.822 393.74 258.66 393.238C258.552 392.903 258.611 392.514 259.006 392.017L268.288 381.816C268.964 381.044 270.19 380.833 271.357 381.011L277.131 382.292C277.742 382.465 278.184 382.692 278.346 383.194C278.454 383.529 278.395 383.918 278 384.414L268.718 394.616C268.437 394.891 267.934 395.053 267.432 395.215ZM269.736 381.719C269.401 381.827 269.066 381.935 268.785 382.21L259.503 392.412C259.335 392.466 259.222 392.687 259.276 392.854C259.33 393.022 259.551 393.135 259.94 393.195L265.714 394.475C266.492 394.594 267.551 394.438 268.113 393.887L277.396 383.685C277.563 383.631 277.677 383.41 277.623 383.242C277.569 383.075 277.347 382.962 276.958 382.902L271.184 381.622C270.627 381.616 270.071 381.611 269.736 381.719Z" fill="#42E8E0"/>
<path d="M282.534 398.479C282.031 398.641 281.307 398.689 280.751 398.684L274.977 397.403C274.366 397.23 273.923 397.003 273.761 396.501C273.653 396.166 273.713 395.777 274.107 395.28L283.39 385.079C284.065 384.307 285.292 384.096 286.458 384.275L292.233 385.555C292.843 385.728 293.286 385.955 293.448 386.457C293.556 386.792 293.496 387.181 293.102 387.678L283.819 397.879C283.371 398.209 283.036 398.317 282.534 398.479ZM283.269 397.317L283.544 397.598L283.269 397.317L292.551 387.116C292.719 387.062 292.832 386.84 292.778 386.673C292.724 386.506 292.503 386.392 292.114 386.333L286.339 385.052C285.562 384.933 284.503 385.09 283.941 385.641L274.658 395.842C274.491 395.896 274.377 396.118 274.431 396.285C274.485 396.453 274.707 396.566 275.096 396.625L280.87 397.906C281.702 398.192 282.707 397.868 283.269 397.317Z" fill="#42E8E0"/>
<path d="M297.471 401.795C296.969 401.957 296.245 402.005 295.688 402L289.914 400.719C289.304 400.546 288.861 400.32 288.699 399.817C288.591 399.482 288.65 399.093 289.045 398.597L298.327 388.395C299.003 387.623 300.229 387.412 301.396 387.591L307.17 388.871C307.781 389.044 308.224 389.271 308.385 389.773C308.493 390.108 308.434 390.497 308.04 390.994L298.757 401.195C298.476 401.471 297.974 401.633 297.471 401.795ZM299.608 388.352C299.273 388.46 298.938 388.568 298.657 388.843L289.374 399.045C289.207 399.099 289.093 399.32 289.147 399.488C289.201 399.655 289.423 399.769 289.812 399.828L295.586 401.109C296.364 401.227 297.423 401.071 297.985 400.52L307.267 390.319C307.435 390.265 307.548 390.043 307.494 389.876C307.44 389.708 307.219 389.595 306.83 389.535L301.055 388.255C300.667 388.196 300.11 388.19 299.608 388.352Z" fill="#42E8E0"/>
<path d="M312.409 405.113C311.906 405.275 311.182 405.323 310.626 405.318L304.852 404.037C304.241 403.864 303.798 403.637 303.636 403.135C303.528 402.8 303.588 402.411 303.982 401.915L313.265 391.713C313.94 390.941 315.167 390.73 316.333 390.909L322.108 392.189C322.718 392.362 323.161 392.589 323.323 393.091C323.431 393.426 323.371 393.815 322.977 394.312L313.694 404.513C313.413 404.789 312.911 404.951 312.409 405.113ZM314.713 391.616C314.378 391.724 314.043 391.832 313.762 392.107L304.479 402.309C304.312 402.363 304.198 402.584 304.252 402.752C304.306 402.919 304.528 403.033 304.917 403.092L310.691 404.373C311.469 404.491 312.528 404.335 313.09 403.784L322.372 393.582C322.54 393.528 322.653 393.307 322.599 393.14C322.545 392.972 322.324 392.859 321.935 392.799L316.16 391.519C315.604 391.513 315.048 391.508 314.713 391.616Z" fill="#42E8E0"/>
<path d="M327.502 408.376C327 408.538 326.276 408.587 325.72 408.582L319.945 407.301C319.335 407.128 318.892 406.901 318.73 406.399C318.622 406.064 318.682 405.675 319.076 405.178L328.359 394.977C329.034 394.205 330.26 393.994 331.427 394.172L337.202 395.453C337.812 395.626 338.255 395.853 338.417 396.355C338.525 396.69 338.465 397.079 338.071 397.576L328.788 407.777C328.34 408.106 328.005 408.214 327.502 408.376ZM329.639 394.934C329.304 395.042 328.969 395.15 328.688 395.425L319.406 405.627C319.238 405.681 319.125 405.902 319.179 406.07C319.233 406.237 319.454 406.35 319.843 406.41L325.617 407.69C326.395 407.809 327.454 407.653 328.016 407.102L337.298 396.9C337.466 396.846 337.579 396.625 337.525 396.458C337.471 396.29 337.25 396.177 336.861 396.117L331.087 394.837C330.698 394.777 330.141 394.772 329.639 394.934Z" fill="#42E8E0"/>
<path d="M342.448 411.694C341.945 411.856 341.221 411.904 340.665 411.899L334.891 410.618C334.28 410.445 333.837 410.218 333.675 409.716C333.567 409.381 333.627 408.992 334.021 408.496L343.304 398.294C343.979 397.522 345.206 397.311 346.373 397.49L352.147 398.77C352.757 398.943 353.2 399.17 353.362 399.672C353.47 400.007 353.411 400.396 353.016 400.893L343.733 411.094C343.453 411.37 342.95 411.532 342.448 411.694ZM344.584 398.251C344.249 398.359 343.914 398.467 343.634 398.742L334.351 408.944C334.183 408.998 334.07 409.219 334.124 409.387C334.178 409.554 334.399 409.668 334.788 409.727L340.563 411.008C341.34 411.126 342.399 410.97 342.961 410.419L352.244 400.218C352.411 400.164 352.525 399.942 352.471 399.775C352.417 399.607 352.195 399.494 351.806 399.434L346.032 398.154C345.643 398.094 345.087 398.089 344.584 398.251Z" fill="#42E8E0"/>
<path d="M221.565 407.784C221.062 407.946 220.339 407.994 219.782 407.989L214.008 406.709C213.397 406.536 212.955 406.309 212.793 405.806C212.685 405.472 212.744 405.083 213.139 404.586L222.421 394.384C223.097 393.612 224.323 393.402 225.49 393.58L231.264 394.86C231.874 395.033 232.317 395.26 232.479 395.762C232.587 396.097 232.528 396.486 232.133 396.983L222.851 407.185C222.516 407.293 222.067 407.622 221.565 407.784ZM223.869 394.287C223.534 394.395 223.199 394.503 222.918 394.779L213.636 404.98C213.468 405.034 213.355 405.256 213.409 405.423C213.463 405.59 213.684 405.704 214.073 405.763L219.847 407.044C220.625 407.163 221.684 407.006 222.246 406.455L231.528 396.254C231.696 396.2 231.809 395.978 231.755 395.811C231.701 395.644 231.48 395.53 231.091 395.471L225.317 394.19C224.76 394.185 224.204 394.179 223.869 394.287Z" fill="#42E8E0"/>
<path d="M236.674 411.047C236.172 411.209 235.448 411.258 234.892 411.252L229.117 409.972C228.507 409.799 228.064 409.572 227.902 409.07C227.794 408.735 227.854 408.346 228.248 407.849L237.531 397.648C238.206 396.875 239.432 396.665 240.599 396.843L246.373 398.124C246.984 398.296 247.427 398.523 247.589 399.026C247.697 399.361 247.637 399.749 247.243 400.246L237.96 410.448C237.458 410.61 237.177 410.885 236.674 411.047ZM238.811 397.604C238.476 397.712 238.141 397.82 237.86 398.096L228.577 408.297C228.41 408.351 228.296 408.573 228.35 408.74C228.404 408.908 228.626 409.021 229.015 409.081L234.789 410.361C235.567 410.48 236.626 410.323 237.188 409.773L246.47 399.571C246.638 399.517 246.751 399.296 246.697 399.128C246.643 398.961 246.422 398.847 246.033 398.788L240.259 397.507C239.87 397.448 239.313 397.442 238.811 397.604Z" fill="#42E8E0"/>
<path d="M251.612 414.365C251.109 414.527 250.385 414.576 249.829 414.57L244.055 413.29C243.444 413.117 243.001 412.89 242.84 412.388C242.732 412.053 242.791 411.664 243.185 411.167L252.468 400.965C253.143 400.193 254.37 399.983 255.537 400.161L261.311 401.441C261.921 401.614 262.364 401.841 262.526 402.344C262.634 402.678 262.575 403.067 262.18 403.564L252.897 413.766C252.563 413.874 252.114 414.203 251.612 414.365ZM253.748 400.922C253.413 401.03 253.078 401.138 252.798 401.414L243.515 411.615C243.347 411.669 243.234 411.891 243.288 412.058C243.342 412.226 243.563 412.339 243.952 412.398L249.727 413.679C250.504 413.798 251.563 413.641 252.125 413.09L261.408 402.889C261.575 402.835 261.689 402.613 261.635 402.446C261.581 402.279 261.359 402.165 260.97 402.106L255.196 400.825C254.807 400.766 254.251 400.76 253.748 400.922Z" fill="#42E8E0"/>
<path d="M266.534 417.682C266.031 417.844 265.307 417.892 264.751 417.887L258.977 416.606C258.366 416.434 257.923 416.207 257.761 415.704C257.653 415.37 257.713 414.981 258.107 414.484L267.39 404.282C268.065 403.51 269.292 403.3 270.458 403.478L276.233 404.758C276.843 404.931 277.286 405.158 277.448 405.66C277.556 405.995 277.496 406.384 277.102 406.881L267.819 417.082C267.484 417.19 267.036 417.52 266.534 417.682ZM268.838 404.185C268.503 404.293 268.168 404.401 267.887 404.677L258.604 414.878C258.437 414.932 258.323 415.154 258.377 415.321C258.431 415.488 258.653 415.602 259.042 415.661L264.816 416.942C265.594 417.061 266.653 416.904 267.215 416.353L276.497 406.152C276.665 406.098 276.778 405.876 276.724 405.709C276.67 405.542 276.449 405.428 276.06 405.369L270.285 404.088C269.729 404.083 269.173 404.077 268.838 404.185Z" fill="#42E8E0"/>
<path d="M281.643 420.945C281.141 421.107 280.417 421.156 279.86 421.15L274.086 419.87C273.476 419.697 273.033 419.47 272.871 418.968C272.763 418.633 272.822 418.244 273.217 417.747L282.499 407.546C283.175 406.773 284.401 406.563 285.568 406.741L291.342 408.022C291.953 408.194 292.395 408.421 292.557 408.924C292.665 409.258 292.606 409.647 292.211 410.144L282.929 420.346C282.426 420.508 282.145 420.783 281.643 420.945ZM283.78 407.502C283.445 407.61 283.11 407.718 282.829 407.994L273.546 418.195C273.379 418.249 273.265 418.471 273.319 418.638C273.373 418.806 273.595 418.919 273.984 418.979L279.758 420.259C280.536 420.378 281.595 420.221 282.156 419.67L291.439 409.469C291.607 409.415 291.72 409.194 291.666 409.026C291.612 408.859 291.391 408.745 291.002 408.686L285.227 407.405C284.838 407.346 284.282 407.34 283.78 407.502Z" fill="#42E8E0"/>
<path d="M296.581 424.263C296.078 424.425 295.354 424.473 294.798 424.468L289.023 423.188C288.413 423.015 287.97 422.788 287.808 422.285C287.7 421.951 287.76 421.562 288.154 421.065L297.437 410.863C298.112 410.091 299.339 409.881 300.505 410.059L306.28 411.339C306.89 411.512 307.333 411.739 307.495 412.241C307.603 412.576 307.543 412.965 307.149 413.462L297.866 423.664C297.531 423.772 297.083 424.101 296.581 424.263ZM298.717 410.82C298.382 410.928 298.047 411.036 297.766 411.312L288.484 421.513C288.316 421.567 288.203 421.789 288.257 421.956C288.311 422.123 288.532 422.237 288.921 422.296L294.695 423.577C295.473 423.696 296.532 423.539 297.094 422.988L306.377 412.787C306.544 412.733 306.658 412.511 306.604 412.344C306.55 412.177 306.328 412.063 305.939 412.004L300.165 410.723C299.776 410.664 299.22 410.658 298.717 410.82Z" fill="#42E8E0"/>
<path d="M311.502 427.581C311 427.743 310.276 427.791 309.72 427.786L303.945 426.505C303.335 426.333 302.892 426.106 302.73 425.603C302.622 425.268 302.682 424.88 303.076 424.383L312.359 414.181C313.034 413.409 314.26 413.198 315.427 413.377L321.202 414.657C321.812 414.83 322.255 415.057 322.417 415.559C322.525 415.894 322.465 416.283 322.071 416.78L312.788 426.981C312.453 427.089 312.005 427.419 311.502 427.581ZM313.806 414.084C313.472 414.192 313.137 414.3 312.856 414.576L303.573 424.777C303.406 424.831 303.292 425.053 303.346 425.22C303.4 425.387 303.621 425.501 304.01 425.56L309.785 426.841C310.563 426.96 311.621 426.803 312.183 426.252L321.466 416.051C321.633 415.997 321.747 415.775 321.693 415.608C321.639 415.44 321.417 415.327 321.029 415.268L315.254 413.987C314.698 413.982 314.141 413.976 313.806 414.084Z" fill="#42E8E0"/>
<path d="M326.612 430.844C326.109 431.006 325.385 431.055 324.829 431.049L319.055 429.769C318.444 429.596 318.001 429.369 317.84 428.867C317.732 428.532 317.791 428.143 318.185 427.646L327.468 417.444C328.144 416.672 329.37 416.462 330.537 416.64L336.311 417.92C336.921 418.093 337.364 418.32 337.526 418.823C337.634 419.157 337.575 419.546 337.18 420.043L327.898 430.245C327.395 430.407 327.114 430.682 326.612 430.844ZM328.748 417.401C328.413 417.509 328.079 417.617 327.798 417.893L318.515 428.094C318.347 428.148 318.234 428.37 318.288 428.537C318.342 428.705 318.563 428.818 318.952 428.877L324.727 430.158C325.504 430.277 326.563 430.12 327.125 429.569L336.408 419.368C336.575 419.314 336.689 419.092 336.635 418.925C336.581 418.758 336.359 418.644 335.97 418.585L330.196 417.304C329.807 417.245 329.251 417.239 328.748 417.401Z" fill="#42E8E0"/>
<path d="M215.768 425.918C215.266 426.08 214.542 426.129 213.985 426.124L208.211 424.843C207.601 424.67 207.158 424.443 206.996 423.941C206.888 423.606 206.947 423.217 207.342 422.72L216.624 412.519C217.3 411.747 218.526 411.536 219.693 411.714L225.467 412.995C226.078 413.168 226.52 413.395 226.682 413.897C226.79 414.232 226.731 414.621 226.336 415.118L217.054 425.319C216.719 425.427 216.27 425.756 215.768 425.918ZM217.905 412.476C217.57 412.584 217.235 412.692 216.954 412.967L207.671 423.169C207.504 423.223 207.39 423.444 207.444 423.612C207.498 423.779 207.72 423.892 208.109 423.952L213.883 425.232C214.661 425.351 215.72 425.195 216.281 424.644L225.564 414.442C225.732 414.388 225.845 414.167 225.791 414C225.737 413.832 225.516 413.719 225.127 413.659L219.352 412.379C218.963 412.319 218.407 412.314 217.905 412.476Z" fill="#42E8E0"/>
<path d="M230.706 429.236C230.203 429.398 229.479 429.447 228.923 429.441L223.148 428.161C222.538 427.988 222.095 427.761 221.933 427.259C221.825 426.924 221.885 426.535 222.279 426.038L231.562 415.837C232.237 415.065 233.464 414.854 234.63 415.032L240.405 416.313C241.015 416.486 241.458 416.713 241.62 417.215C241.728 417.55 241.668 417.939 241.274 418.435L231.991 428.637C231.656 428.745 231.208 429.074 230.706 429.236ZM233.01 415.74C232.675 415.848 232.34 415.956 232.059 416.231L222.776 426.433C222.609 426.487 222.495 426.708 222.549 426.875C222.603 427.043 222.825 427.156 223.214 427.216L228.988 428.496C229.766 428.615 230.824 428.459 231.386 427.908L240.669 417.706C240.837 417.652 240.95 417.431 240.896 417.263C240.842 417.096 240.621 416.983 240.232 416.923L234.457 415.643C233.901 415.637 233.345 415.632 233.01 415.74Z" fill="#42E8E0"/>
<path d="M245.815 432.5C245.312 432.661 244.589 432.71 244.032 432.705L238.258 431.424C237.647 431.251 237.205 431.024 237.043 430.522C236.935 430.187 236.994 429.798 237.389 429.301L246.671 419.1C247.347 418.328 248.573 418.117 249.74 418.295L255.514 419.576C256.124 419.749 256.567 419.976 256.729 420.478C256.837 420.813 256.778 421.202 256.383 421.699L247.101 431.9C246.598 432.062 246.317 432.338 245.815 432.5ZM247.951 419.057C247.617 419.165 247.282 419.273 247.001 419.548L237.718 429.75C237.551 429.804 237.437 430.025 237.491 430.193C237.545 430.36 237.767 430.474 238.155 430.533L243.93 431.813C244.708 431.932 245.766 431.776 246.328 431.225L255.611 421.023C255.778 420.969 255.892 420.748 255.838 420.581C255.784 420.413 255.562 420.3 255.174 420.24L249.399 418.96C249.01 418.9 248.454 418.895 247.951 419.057Z" fill="#42E8E0"/>
<path d="M260.737 435.817C260.234 435.979 259.51 436.028 258.954 436.022L253.18 434.742C252.569 434.569 252.126 434.342 251.965 433.84C251.857 433.505 251.916 433.116 252.31 432.619L261.593 422.418C262.269 421.646 263.495 421.435 264.662 421.613L270.436 422.894C271.046 423.067 271.489 423.294 271.651 423.796C271.759 424.131 271.7 424.52 271.305 425.016L262.023 435.218C261.688 435.326 261.239 435.655 260.737 435.817ZM262.873 422.375C262.538 422.483 262.204 422.591 261.923 422.866L252.64 433.068C252.472 433.122 252.359 433.343 252.413 433.51C252.467 433.678 252.688 433.791 253.077 433.851L258.852 435.131C259.629 435.25 260.688 435.094 261.25 434.543L270.533 424.341C270.7 424.287 270.814 424.066 270.76 423.898C270.706 423.731 270.484 423.618 270.095 423.558L264.321 422.278C263.932 422.218 263.376 422.213 262.873 422.375Z" fill="#42E8E0"/>
<path d="M275.674 439.134C275.172 439.296 274.448 439.344 273.892 439.339L268.117 438.058C267.507 437.885 267.064 437.658 266.902 437.156C266.794 436.821 266.854 436.432 267.248 435.936L276.531 425.734C277.206 424.962 278.432 424.751 279.599 424.93L285.373 426.21C285.984 426.383 286.427 426.61 286.589 427.112C286.697 427.447 286.637 427.836 286.243 428.333L276.96 438.534C276.625 438.642 276.177 438.972 275.674 439.134ZM277.978 425.637C277.643 425.745 277.308 425.853 277.027 426.128L267.745 436.33C267.577 436.384 267.464 436.605 267.518 436.773C267.572 436.94 267.793 437.054 268.182 437.113L273.957 438.393C274.734 438.512 275.793 438.356 276.355 437.805L285.638 427.603C285.805 427.549 285.919 427.328 285.865 427.161C285.811 426.993 285.589 426.88 285.2 426.82L279.426 425.54C278.87 425.534 278.313 425.529 277.978 425.637Z" fill="#42E8E0"/>
<path d="M290.784 442.397C290.281 442.559 289.557 442.608 289.001 442.603L283.227 441.322C282.616 441.149 282.173 440.922 282.011 440.42C281.903 440.085 281.963 439.696 282.357 439.199L291.64 428.998C292.315 428.226 293.542 428.015 294.708 428.193L300.483 429.474C301.093 429.647 301.536 429.874 301.698 430.376C301.806 430.711 301.746 431.1 301.352 431.597L292.069 441.798C291.567 441.96 291.286 442.235 290.784 442.397ZM292.92 428.955C292.585 429.063 292.25 429.171 291.969 429.446L282.687 439.648C282.519 439.702 282.406 439.923 282.46 440.091C282.514 440.258 282.735 440.371 283.124 440.431L288.899 441.711C289.676 441.83 290.735 441.674 291.297 441.123L300.58 430.921C300.747 430.867 300.861 430.646 300.807 430.479C300.753 430.311 300.531 430.198 300.142 430.138L294.368 428.858C293.979 428.798 293.423 428.793 292.92 428.955Z" fill="#42E8E0"/>
<path d="M305.705 445.715C305.203 445.877 304.479 445.926 303.923 445.92L298.148 444.64C297.538 444.467 297.095 444.24 296.933 443.738C296.825 443.403 296.885 443.014 297.279 442.517L306.562 432.316C307.237 431.544 308.464 431.333 309.63 431.511L315.405 432.792C316.015 432.965 316.458 433.192 316.62 433.694C316.728 434.029 316.668 434.418 316.274 434.914L306.991 445.116C306.656 445.224 306.208 445.553 305.705 445.715ZM307.842 432.273C307.507 432.381 307.172 432.489 306.891 432.764L297.609 442.966C297.441 443.02 297.328 443.241 297.382 443.408C297.436 443.576 297.657 443.689 298.046 443.749L303.82 445.029C304.598 445.148 305.657 444.992 306.219 444.441L315.502 434.239C315.669 434.185 315.783 433.964 315.729 433.796C315.675 433.629 315.453 433.516 315.064 433.456L309.29 432.176C308.901 432.116 308.345 432.111 307.842 432.273Z" fill="#42E8E0"/>
<path opacity="0.4" d="M521.371 173.603L440.136 156.173C435.193 155.179 434.346 150.831 438.285 146.419C442.224 142.007 449.371 139.518 454.314 140.512L535.549 157.942C540.491 158.936 541.339 163.284 537.4 167.696C533.407 171.941 526.314 174.598 521.371 173.603Z" fill="#42E8E0"/>
<path opacity="0.4" d="M506 218.851L458.136 208.591C453.193 207.596 452.346 203.249 456.285 198.836C460.224 194.424 467.371 191.935 472.314 192.929L520.178 203.189C525.12 204.184 525.967 208.531 522.028 212.944C518.089 217.356 510.996 220.012 506 218.851Z" fill="#42E8E0"/>
<path opacity="0.4" d="M462.622 295.313L442.355 290.942C437.412 289.948 436.565 285.6 440.504 281.188C444.443 276.776 451.59 274.287 456.533 275.281L476.799 279.652C481.742 280.646 482.589 284.994 478.65 289.406C474.879 293.764 467.618 296.475 462.622 295.313Z" fill="#42E8E0"/>
<path opacity="0.4" d="M535.184 216.466L453.948 199.036C449.006 198.042 448.159 193.694 452.098 189.282C456.037 184.87 463.184 182.381 468.126 183.375L549.361 200.805C554.304 201.799 555.151 206.147 551.212 210.559C547.273 214.971 540.18 217.628 535.184 216.466Z" fill="#24126A"/>
<path opacity="0.4" d="M429.533 259.773L334.972 239.431C330.029 238.437 329.182 234.089 333.121 229.677C337.06 225.265 344.207 222.775 349.15 223.77L443.711 244.112C448.653 245.106 449.5 249.454 445.561 253.866C441.79 258.224 434.475 260.767 429.533 259.773Z" fill="#24126A"/>
<path opacity="0.4" d="M465.911 305.527L445.644 301.156C440.701 300.161 439.854 295.814 443.793 291.401C447.732 286.989 454.879 284.5 459.822 285.494L480.089 289.865C485.031 290.859 485.878 295.207 481.939 299.619C478.114 303.81 470.853 306.521 465.911 305.527Z" fill="#24126A"/>
<path opacity="0.4" d="M314.036 302.371L293.769 298C288.826 297.006 287.979 292.658 291.918 288.246C295.857 283.833 303.004 281.344 307.947 282.338L328.213 286.709C333.156 287.704 334.003 292.051 330.064 296.464C326.293 300.822 319.032 303.532 314.036 302.371Z" fill="#24126A"/>
<path d="M454.101 110.635C451.421 111.499 448.58 111.861 446.36 111.282L387.336 98.5207C385.116 97.9426 383.458 96.8137 382.918 95.1394C382.27 93.1302 383.13 90.635 385.323 88.2642C389.262 83.852 396.69 81.0874 401.687 82.249L460.71 95.0108C462.93 95.5889 464.589 96.7178 465.128 98.3921C465.776 100.401 464.917 102.896 462.723 105.267C460.583 107.805 457.282 109.609 454.101 110.635ZM393.994 83.6202C390.812 84.6461 387.733 86.5632 385.653 88.7125C383.74 90.8079 382.827 93.1356 383.42 94.9774C383.906 96.4843 385.343 97.4997 387.341 97.9644L446.365 110.726C451.14 111.774 458.233 109.118 462.059 104.927C463.971 102.832 464.885 100.504 464.291 98.6621C463.805 97.1552 462.369 96.1397 460.37 95.6751L401.346 82.9133C399.18 82.5026 396.674 82.7563 393.994 83.6202Z" fill="#42E8E0"/>
<path d="M431.435 241.043C428.755 241.907 425.914 242.269 423.694 241.691L329.133 221.349C326.913 220.77 325.255 219.642 324.715 217.967C324.067 215.958 324.926 213.463 327.12 211.092C331.059 206.68 338.487 203.915 343.484 205.077L438.045 225.419C440.265 225.997 441.923 227.126 442.463 228.8C443.11 230.81 442.251 233.305 440.057 235.675C437.864 238.046 434.617 240.017 431.435 241.043ZM335.791 206.448C332.609 207.474 329.53 209.391 327.449 211.54C325.537 213.636 324.623 215.963 325.217 217.805C325.703 219.312 327.14 220.328 329.138 220.792L423.699 241.134C428.474 242.183 435.568 239.526 439.393 235.335C441.306 233.24 442.219 230.912 441.625 229.07C441.139 227.563 439.703 226.548 437.704 226.083L343.143 205.741C340.977 205.331 338.471 205.584 335.791 206.448Z" fill="#42E8E0"/>
<path d="M528.992 173.178C526.312 174.042 523.471 174.404 521.251 173.825L440.016 156.395C437.796 155.817 436.137 154.688 435.598 153.014C434.95 151.005 435.809 148.51 438.003 146.139C441.942 141.727 449.37 138.962 454.366 140.124L535.602 157.554C537.822 158.132 539.48 159.261 540.02 160.935C540.667 162.944 539.808 165.439 537.614 167.81C535.421 170.181 532.174 172.152 528.992 173.178ZM446.841 141.441C443.659 142.467 440.58 144.384 438.5 146.533C436.587 148.629 435.674 150.956 436.267 152.798C436.753 154.305 438.19 155.321 440.189 155.785L521.424 173.215C526.199 174.263 533.292 171.607 537.117 167.416C539.03 165.321 539.944 162.993 539.35 161.151C538.864 159.644 537.427 158.629 535.429 158.164L454.193 140.734C452.027 140.323 449.521 140.577 446.841 141.441Z" fill="#42E8E0"/>
<path d="M513.69 218.593C511.011 219.457 508.169 219.818 505.949 219.24L458.085 208.98C455.865 208.402 454.207 207.273 453.667 205.599C453.02 203.589 453.879 201.094 456.073 198.723C460.012 194.311 467.44 191.547 472.436 192.708L520.3 202.968C522.52 203.547 524.178 204.675 524.718 206.35C525.366 208.359 524.507 210.854 522.313 213.225C520.119 215.596 517.04 217.513 513.69 218.593ZM506.068 218.462C510.843 219.511 517.937 216.854 521.762 212.663C523.675 210.568 524.588 208.24 523.994 206.398C523.508 204.891 522.072 203.876 520.073 203.411L472.263 193.319C467.488 192.27 460.395 194.927 456.57 199.118C454.657 201.213 453.743 203.541 454.337 205.383C454.823 206.889 456.26 207.905 458.258 208.37L506.068 218.462Z" fill="#42E8E0"/>
<path opacity="0.4" d="M515.718 248.989L467.855 238.729C462.912 237.734 462.065 233.387 466.004 228.974C469.943 224.562 477.09 222.073 482.033 223.067L529.896 233.327C534.839 234.322 535.686 238.669 531.747 243.082C527.754 247.326 520.661 249.983 515.718 248.989Z" fill="#24126A"/>
<path d="M470.305 295.054C467.625 295.918 464.784 296.28 462.564 295.702L442.297 291.331C440.077 290.753 438.419 289.624 437.879 287.949C437.231 285.94 438.09 283.445 440.284 281.074C444.223 276.662 451.651 273.897 456.648 275.059L476.915 279.43C479.135 280.008 480.793 281.137 481.333 282.811C481.98 284.821 481.121 287.316 478.927 289.687C476.734 292.057 473.654 293.974 470.305 295.054ZM462.737 295.091C467.512 296.14 474.605 293.483 478.43 289.292C480.343 287.197 481.257 284.869 480.663 283.027C480.177 281.52 478.74 280.505 476.742 280.04L456.475 275.669C451.7 274.621 444.606 277.278 440.781 281.469C438.868 283.564 437.955 285.892 438.549 287.733C439.035 289.24 440.471 290.256 442.47 290.72L462.737 295.091Z" fill="#42E8E0"/>
<path d="M320.149 297.258C317.469 298.122 314.628 298.483 312.407 297.905L292.141 293.534C289.921 292.956 288.262 291.827 287.723 290.153C287.075 288.144 287.934 285.648 290.128 283.278C294.067 278.865 301.495 276.101 306.492 277.262L326.758 281.633C328.978 282.211 330.637 283.34 331.176 285.015C331.824 287.024 330.965 289.519 328.771 291.89C326.577 294.261 323.498 296.178 320.149 297.258ZM298.912 278.412C295.73 279.438 292.651 281.355 290.571 283.505C288.658 285.6 287.745 287.928 288.338 289.769C288.824 291.276 290.261 292.292 292.26 292.756L312.527 297.127C317.302 298.176 324.395 295.519 328.22 291.328C330.133 289.233 331.046 286.905 330.453 285.063C329.967 283.556 328.53 282.541 326.531 282.076L306.265 277.705C304.098 277.295 301.424 277.602 298.912 278.412Z" fill="#42E8E0"/>
<g style="mix-blend-mode:screen" opacity="0.5" filter="url(#filter0_f_126_124)">
<path d="M539.975 159.655L508.773 62.8789L416.664 92.5762L436.044 152.684C436.584 154.359 438.128 155.709 440.57 156.4L520.028 173.479C525.413 174.7 533.344 171.774 537.564 167.086C539.871 164.494 540.676 161.831 539.975 159.655Z" fill="url(#paint4_radial_126_124)"/>
</g>
<path opacity="0.4" d="M378.908 388.294L256.75 362.062C248.42 360.312 246.99 353.009 253.685 345.676C260.212 338.396 272.275 333.952 280.605 335.702L402.763 361.934C411.092 363.684 412.522 370.986 405.827 378.32C399.354 385.768 387.123 390.266 378.908 388.294Z" fill="#24126A"/>
<path opacity="0.4" d="M376.525 380.927L254.367 354.695C246.038 352.945 244.608 345.643 251.302 338.309C257.829 331.029 269.893 326.585 278.222 328.336L400.38 354.567C408.709 356.318 410.139 363.62 403.444 370.954C396.971 378.401 384.741 382.899 376.525 380.927Z" fill="#42E8E0"/>
<path d="M389.274 380.329C384.752 381.787 380.128 382.354 376.298 381.37L254.14 355.139C250.365 354.323 247.88 352.351 246.963 349.505C245.883 346.156 247.315 341.998 250.86 338.083C257.554 330.749 269.785 326.251 278.114 328.001L400.272 354.233C404.048 355.049 406.533 357.02 407.45 359.867C408.53 363.215 407.097 367.374 403.553 371.289C400.063 375.372 394.8 378.547 389.274 380.329ZM376.639 380.706C384.801 382.511 396.864 378.067 403.224 370.841C406.655 367.147 407.974 363.21 406.948 360.028C406.138 357.517 403.708 355.713 400.321 354.957L278.163 328.725C270.001 326.921 257.938 331.364 251.578 338.59C248.147 342.284 246.828 346.221 247.854 349.403C248.664 351.914 251.094 353.718 254.481 354.475L376.639 380.706Z" fill="#42E8E0"/>
<path opacity="0.4" d="M393.325 369.41C391.412 371.505 387.393 372.801 384.616 372.218C381.84 371.634 381.084 369.29 382.997 367.195C384.91 365.099 388.929 363.803 391.705 364.387C394.649 364.917 395.405 367.261 393.325 369.41Z" fill="#42E8E0"/>
<path d="M389.396 372.154C387.721 372.694 386.106 372.845 384.55 372.607C383.162 372.315 382.168 371.527 381.844 370.522C381.52 369.518 381.866 368.297 382.823 367.249C384.903 365.1 388.922 363.804 391.699 364.388C393.087 364.679 394.081 365.468 394.405 366.472C394.728 367.477 394.383 368.698 393.426 369.745C392.637 370.739 391.071 371.614 389.396 372.154ZM387.075 364.954C385.567 365.44 384.168 366.261 383.212 367.309C382.423 368.302 382.023 369.356 382.293 370.193C382.563 371.03 383.502 371.651 384.723 371.997C387.5 372.58 391.351 371.338 393.264 369.243C394.053 368.249 394.453 367.196 394.183 366.359C393.913 365.522 392.973 364.901 391.753 364.555C390.364 364.263 388.749 364.414 387.075 364.954Z" fill="#42E8E0"/>
<path opacity="0.4" d="M376.223 365.682C374.311 367.777 370.291 369.073 367.515 368.49C364.738 367.906 363.983 365.562 365.895 363.467C367.808 361.371 371.827 360.075 374.604 360.659C377.38 361.242 378.136 363.587 376.223 365.682Z" fill="#42E8E0"/>
<path d="M371.388 365.579C369.713 366.119 368.098 366.27 366.542 366.032C365.154 365.74 364.16 364.952 363.837 363.947C363.513 362.942 363.859 361.722 364.815 360.674C366.895 358.525 370.914 357.229 373.691 357.812C375.079 358.104 376.073 358.893 376.397 359.897C376.721 360.902 376.375 362.122 375.418 363.17C374.462 364.218 373.063 365.039 371.388 365.579ZM369.067 358.379C367.56 358.865 366.16 359.686 365.204 360.734C364.415 361.727 364.015 362.78 364.285 363.618C364.555 364.455 365.495 365.076 366.715 365.422C369.492 366.005 373.344 364.763 375.256 362.668C376.045 361.674 376.445 360.621 376.175 359.784C375.905 358.947 374.966 358.326 373.745 357.98C372.189 357.742 370.574 357.893 369.067 358.379Z" fill="#42E8E0"/>
<path d="M323.872 347.256C322.198 347.796 320.583 347.947 319.027 347.709C317.639 347.417 316.645 346.629 316.321 345.624C315.997 344.62 316.343 343.399 317.299 342.351C319.38 340.202 323.399 338.906 326.175 339.49C327.563 339.781 328.557 340.57 328.881 341.575C329.205 342.579 328.859 343.8 327.903 344.847C327.114 345.841 325.547 346.716 323.872 347.256ZM321.605 340.224C320.098 340.71 318.699 341.531 317.742 342.578C316.953 343.572 316.553 344.625 316.823 345.462C317.093 346.299 318.033 346.921 319.254 347.266C322.03 347.85 325.882 346.608 327.795 344.513C328.584 343.519 328.984 342.466 328.714 341.629C328.444 340.791 327.504 340.17 326.283 339.824C324.895 339.533 323.112 339.738 321.605 340.224Z" fill="#42E8E0"/>
<path opacity="0.4" d="M331.739 356.734C329.826 358.83 325.807 360.126 323.03 359.542C320.254 358.959 319.498 356.615 321.411 354.519C323.324 352.424 327.343 351.128 330.119 351.711C333.117 352.408 333.819 354.585 331.739 356.734Z" fill="#42E8E0"/>
<path d="M304.451 336.328C302.776 336.868 301.161 337.019 299.605 336.782C298.217 336.49 297.223 335.701 296.899 334.697C296.575 333.692 296.921 332.472 297.878 331.424C299.958 329.274 303.977 327.979 306.753 328.562C308.142 328.854 309.135 329.642 309.459 330.647C309.783 331.652 309.437 332.872 308.481 333.92C307.524 334.968 306.125 335.788 304.451 336.328ZM302.183 329.296C300.676 329.782 299.277 330.603 298.32 331.651C297.531 332.644 297.132 333.698 297.401 334.535C297.671 335.372 298.611 335.993 299.832 336.339C302.608 336.922 306.46 335.68 308.373 333.585C309.162 332.591 309.562 331.538 309.292 330.701C309.022 329.864 308.082 329.243 306.861 328.897C305.306 328.659 303.69 328.81 302.183 329.296Z" fill="#42E8E0"/>
<path opacity="0.4" d="M314.856 353.676C312.943 355.772 308.924 357.068 306.148 356.484C303.371 355.901 302.615 353.556 304.528 351.461C306.441 349.366 310.46 348.07 313.237 348.653C316.013 349.237 316.769 351.581 314.856 353.676Z" fill="#42E8E0"/>
<path d="M283.951 322.051C282.276 322.591 280.661 322.742 279.105 322.504C277.717 322.213 276.723 321.424 276.399 320.419C276.075 319.415 276.421 318.194 277.378 317.146C279.458 314.997 283.477 313.701 286.253 314.285C287.642 314.577 288.635 315.365 288.959 316.37C289.283 317.374 288.937 318.595 287.981 319.643C287.024 320.69 285.458 321.565 283.951 322.051ZM281.629 314.851C280.122 315.337 278.723 316.158 277.766 317.206C276.978 318.2 276.578 319.253 276.848 320.09C277.117 320.927 278.057 321.548 279.278 321.894C282.054 322.478 285.906 321.236 287.819 319.14C288.608 318.147 289.008 317.093 288.738 316.256C288.468 315.419 287.528 314.798 286.307 314.452C284.752 314.214 283.137 314.365 281.629 314.851Z" fill="#42E8E0"/>
<path opacity="0.4" d="M297.52 350.39C295.607 352.486 291.588 353.782 288.812 353.198C286.035 352.615 285.279 350.271 287.192 348.175C289.105 346.08 293.124 344.784 295.901 345.367C298.677 345.951 299.433 348.295 297.52 350.39Z" fill="#42E8E0"/>
<path opacity="0.4" d="M344.725 354.581L359.606 357.731C361.994 358.255 362.528 360.486 360.615 362.581C358.702 364.676 355.072 366.032 352.685 365.508L337.803 362.358C335.415 361.834 334.881 359.603 336.794 357.508C338.707 355.412 342.17 354.111 344.725 354.581Z" fill="#42E8E0"/>
<path d="M354.527 359.74C353.187 360.172 351.739 360.269 350.572 360.091L335.691 356.941C334.524 356.762 333.752 356.087 333.482 355.25C333.158 354.245 333.672 352.971 334.741 351.702C336.822 349.552 340.452 348.197 343.007 348.667L357.888 351.817C359.055 351.995 359.827 352.67 360.097 353.508C360.421 354.512 359.908 355.787 358.838 357.056C357.768 358.325 356.201 359.2 354.527 359.74ZM339.161 349.353C337.653 349.839 336.087 350.713 335.017 351.982C334.06 353.03 333.66 354.083 333.984 355.088C334.2 355.758 334.919 356.265 335.918 356.498L350.799 359.648C353.187 360.172 356.65 358.87 358.563 356.775C359.519 355.727 359.919 354.674 359.595 353.67C359.379 353 358.661 352.492 357.661 352.26L342.78 349.11C341.727 348.71 340.333 348.975 339.161 349.353Z" fill="#42E8E0"/>
<g style="mix-blend-mode:lighten" opacity="0.5" filter="url(#filter1_f_126_124)">
<path d="M229.198 306.436C270.541 293.107 293.253 248.793 279.927 207.459C266.6 166.124 222.281 143.422 180.937 156.752C139.594 170.082 116.882 214.396 130.208 255.73C143.535 297.064 187.854 319.766 229.198 306.436Z" fill="url(#paint5_radial_126_124)"/>
</g>
<path d="M212.356 254.198C224.842 250.172 231.701 236.789 227.676 224.305C223.652 211.822 210.267 204.966 197.78 208.991C185.294 213.017 178.435 226.401 182.46 238.884C186.484 251.368 199.869 258.224 212.356 254.198Z" fill="#42E8E0"/>
<g style="mix-blend-mode:screen" opacity="0.8">
<path d="M502.29 503.775C482.361 510.201 458.263 510.577 431.277 504.86C409.233 500.138 386.282 491.457 363.424 479.049C362.538 478.596 362.214 477.591 362.668 476.705C363.122 475.82 364.127 475.496 365.013 475.949C387.595 488.076 410.157 496.698 431.812 501.361C476.511 510.978 512.813 503.155 534.361 479.388C555.909 455.62 560.06 418.608 546.024 375.076C516.874 284.662 417.66 194.843 324.709 174.906C270.293 163.246 227.745 178.074 210.467 214.512C210.013 215.398 209.008 215.722 208.122 215.268C207.237 214.814 206.913 213.81 207.367 212.924C225.271 174.989 269.44 159.455 325.466 171.52C419.417 191.689 519.899 282.578 549.374 373.996C563.787 418.7 559.29 456.933 536.953 481.694C528.06 491.955 516.19 499.294 502.29 503.775Z" fill="url(#paint6_linear_126_124)"/>
</g>
<path d="M215.775 88.7737L214.406 75.3524L215.578 74.9744L222.307 86.6679L221.134 87.0459L219.385 83.9132L216.37 84.8851L216.78 88.4497L215.775 88.7737ZM216.268 83.994L218.947 83.13L215.394 76.6973L216.268 83.994Z" fill="white"/>
<path d="M226.379 85.5391C225.709 85.7551 225.099 85.5822 224.435 85.2419L224.651 85.9116L223.478 86.2896L219.43 73.7322L220.602 73.3542L222.006 77.7075C222.292 76.8757 222.74 76.5463 223.41 76.3303C223.745 76.2224 224.08 76.1144 224.302 76.2278C224.691 76.2872 224.912 76.4007 225.133 76.5141C225.355 76.6275 225.63 76.9084 225.738 77.2433C226.014 77.5242 226.122 77.859 226.23 78.1939C226.338 78.5287 226.446 78.8636 226.554 79.1985L227.147 81.0402C227.309 81.5425 227.417 81.8774 227.579 82.3797C227.687 82.7145 227.628 83.1034 227.736 83.4383C227.676 83.8271 227.784 84.162 227.671 84.3834C227.557 84.6048 227.444 84.8263 227.163 85.1017C227.049 85.3231 226.714 85.4311 226.379 85.5391ZM225.942 84.7559C226.444 84.5939 226.725 84.3185 226.731 83.7622C226.736 83.206 226.52 82.5362 226.197 81.5316L225.549 79.5224C225.225 78.5179 225.009 77.8481 224.733 77.5673C224.458 77.2864 224.015 77.0595 223.513 77.2215C223.01 77.3835 222.562 77.7129 222.389 78.3232L224.386 84.5182C224.883 84.9125 225.44 84.9179 225.942 84.7559Z" fill="white"/>
<path d="M233.534 83.0498C233.253 83.3252 232.918 83.4332 232.415 83.5952C231.913 83.7572 231.578 83.8651 231.189 83.8057C230.8 83.7462 230.579 83.6328 230.303 83.352C230.028 83.0711 229.752 82.7902 229.644 82.4553C229.536 82.1205 229.207 81.6722 228.991 81.0025L228.181 78.491C227.803 77.319 227.701 76.4278 227.874 75.8175C228.047 75.2072 228.609 74.6564 229.446 74.3864C230.283 74.1164 231.061 74.2353 231.558 74.6296C232.055 75.0239 232.492 75.8071 232.87 76.9791L233.68 79.4906C233.842 79.9929 234.004 80.4952 233.999 81.0515C234.106 81.3863 234.101 81.9426 233.987 82.1641C233.928 82.5529 233.814 82.7743 233.534 83.0498ZM232.145 82.758C232.313 82.704 232.648 82.596 232.594 82.4286C232.707 82.2071 232.875 82.1532 232.821 81.9857C232.934 81.7643 232.88 81.5969 232.826 81.4294C232.772 81.262 232.664 80.9271 232.778 80.7057C232.724 80.5383 232.616 80.2034 232.508 79.8686L231.644 77.1896C231.536 76.8548 231.428 76.5199 231.374 76.3525C231.32 76.185 231.212 75.8502 230.991 75.7368C230.937 75.5693 230.715 75.4559 230.661 75.2885C230.44 75.175 230.44 75.175 230.218 75.0616C229.997 74.9481 229.83 75.0021 229.662 75.0561C229.495 75.1101 229.327 75.1641 229.16 75.2181C228.992 75.2721 228.879 75.4935 228.879 75.4935C228.765 75.715 228.765 75.715 228.819 75.8824C228.873 76.0498 228.76 76.2713 228.814 76.4387C228.868 76.6061 228.922 76.7735 229.03 77.1084C229.084 77.2758 229.138 77.4433 229.246 77.7781L230.109 80.457C230.217 80.7919 230.271 80.9593 230.325 81.1268C230.379 81.2942 230.433 81.4616 230.541 81.7965C230.595 81.9639 230.649 82.1314 230.871 82.2448C230.925 82.4123 231.146 82.5257 231.146 82.5257C231.367 82.6391 231.367 82.6391 231.535 82.5851C231.81 82.866 231.978 82.812 232.145 82.758Z" fill="white"/>
<path d="M237.762 81.8669C237.26 82.0289 236.871 81.9694 236.595 81.6886C236.32 81.4077 235.99 80.9594 235.774 80.2897L233.453 73.0901L234.625 72.7121L236.893 79.7443C237.055 80.2466 237.163 80.5814 237.384 80.6949C237.606 80.8083 237.827 80.9217 238.162 80.8137C238.664 80.6518 239.059 80.1549 239.567 79.4366L237.191 72.0696L238.364 71.6916L241.279 80.733L240.107 81.111L239.783 80.1064C239.161 81.0461 238.432 81.6509 237.762 81.8669Z" fill="white"/>
<path d="M244.968 79.5464C244.298 79.7624 243.909 79.7029 243.466 79.476C243.191 79.1952 242.862 78.7469 242.646 78.0771L240.594 71.7147L239.422 72.0927L239.152 71.2555L240.324 70.8776L239.407 68.0312L240.579 67.6533L241.497 70.4996L243.004 70.0136L243.274 70.8508L241.767 71.3368L243.818 77.6992C243.98 78.2015 244.088 78.5363 244.309 78.6498C244.531 78.7632 244.752 78.8766 245.087 78.7687C245.255 78.7147 245.59 78.6067 245.757 78.5527L246.027 79.3898C245.638 79.3304 245.303 79.4384 244.968 79.5464Z" fill="white"/>
<path d="M297.054 62.7548C296.551 62.9168 296.049 63.0788 295.66 63.0193C295.271 62.9599 294.882 62.9004 294.493 62.841C294.272 62.7276 293.829 62.5007 293.721 62.1658C293.445 61.885 293.337 61.5501 293.062 61.2692C292.954 60.9344 292.625 60.4861 292.463 59.9838L290.843 54.9608C290.681 54.4585 290.519 53.9562 290.579 53.5673C290.471 53.2325 290.53 52.8436 290.59 52.4548C290.649 52.0659 290.709 51.677 290.822 51.4556C290.936 51.2342 291.217 50.9588 291.498 50.6833C291.779 50.4079 292.281 50.2459 292.783 50.084C293.286 49.922 293.788 49.76 294.177 49.8194C294.566 49.8789 294.955 49.9383 295.398 50.1652C295.673 50.4461 295.949 50.7269 296.278 51.1752C296.608 51.6235 296.77 52.1258 296.932 52.6281L297.202 53.4653L296.029 53.8432L295.813 53.1735C295.651 52.6712 295.543 52.3364 295.435 52.0015C295.327 51.6666 295.106 51.5532 294.831 51.2723C294.555 50.9915 294.334 50.878 294.166 50.932C293.777 50.8726 293.61 50.9266 293.107 51.0886C292.772 51.1965 292.27 51.3585 292.157 51.58C291.876 51.8554 291.762 52.0768 291.703 52.4657C291.643 52.8545 291.697 53.0219 291.638 53.4108C291.746 53.7457 291.854 54.0805 292.015 54.5828L293.743 59.9407C294.067 60.9452 294.45 61.561 294.947 61.9553C295.444 62.3496 296 62.355 296.67 62.1391C297.005 62.0311 297.173 61.9771 297.454 61.7017C297.567 61.4802 297.735 61.4262 297.848 61.2048C297.962 60.9834 297.908 60.816 298.021 60.5945C297.967 60.4271 298.027 60.0382 297.973 59.8708C297.865 59.5359 297.811 59.3685 297.703 59.0336L297.433 58.1965L298.605 57.8185L298.821 58.4882C298.983 58.9905 299.091 59.3254 299.199 59.6603C299.307 59.9951 299.247 60.384 299.188 60.7729C299.128 61.1617 299.069 61.5506 298.955 61.772C298.842 61.9934 298.561 62.2688 298.28 62.5443C297.891 62.4848 297.556 62.5928 297.054 62.7548Z" fill="white"/>
<path d="M305.041 59.9956C304.76 60.271 304.425 60.379 303.923 60.541C303.421 60.703 303.086 60.8109 302.697 60.7515C302.308 60.6921 302.086 60.5786 301.811 60.2978C301.535 60.0169 301.26 59.736 301.152 59.4012C301.044 59.0663 300.715 58.618 300.499 57.9483L299.689 55.4368C299.311 54.2648 299.209 53.3736 299.382 52.7633C299.555 52.153 300.117 51.6022 300.954 51.3322C301.791 51.0622 302.569 51.1811 303.066 51.5754C303.563 51.9697 304 52.7529 304.378 53.9249L305.188 56.4364C305.35 56.9387 305.512 57.441 305.506 57.9973C305.614 58.3321 305.609 58.8884 305.495 59.1099C305.436 59.4987 305.322 59.7202 305.041 59.9956ZM303.653 59.7038C303.821 59.6498 304.155 59.5418 304.101 59.3744C304.215 59.153 304.382 59.099 304.328 58.9315C304.442 58.7101 304.388 58.5427 304.334 58.3752C304.28 58.2078 304.172 57.873 304.286 57.6515C304.232 57.4841 304.124 57.1492 304.016 56.8144L303.152 54.1355C303.044 53.8006 302.936 53.4657 302.882 53.2983C302.828 53.1309 302.72 52.796 302.499 52.6826C302.445 52.5151 302.223 52.4017 302.169 52.2343C301.948 52.1208 301.948 52.1208 301.726 52.0074C301.505 51.894 301.337 51.9479 301.17 52.0019C301.002 52.0559 300.835 52.1099 300.667 52.1639C300.5 52.2179 300.387 52.4393 300.387 52.4393C300.273 52.6608 300.273 52.6608 300.327 52.8282C300.381 52.9956 300.267 53.2171 300.321 53.3845C300.375 53.5519 300.429 53.7194 300.537 54.0542C300.591 54.2217 300.645 54.3891 300.753 54.724L301.617 57.4029C301.725 57.7377 301.779 57.9052 301.833 58.0726C301.887 58.24 301.941 58.4075 302.049 58.7423C302.103 58.9098 302.157 59.0772 302.378 59.1906C302.432 59.3581 302.654 59.4715 302.654 59.4715C302.875 59.5849 302.875 59.5849 303.043 59.5309C303.318 59.8118 303.486 59.7578 303.653 59.7038Z" fill="white"/>
<path d="M307.892 59.0772L304.977 50.0359L306.149 49.6579L306.473 50.6625C306.927 49.7768 307.489 49.226 308.326 48.956C308.828 48.794 309.217 48.8534 309.493 49.1343C309.768 49.4152 310.098 49.8635 310.26 50.3658L312.581 57.5654L311.409 57.9433L309.141 50.9112C308.979 50.4089 308.871 50.074 308.65 49.9606C308.428 49.8471 308.207 49.7337 307.872 49.8417C307.37 50.0037 306.975 50.5005 306.635 51.1648L309.01 58.5318L307.838 58.9098L307.892 59.0772Z" fill="white"/>
<path d="M316.488 56.4907C315.818 56.7067 315.429 56.6473 314.986 56.4204C314.711 56.1395 314.382 55.6912 314.166 55.0215L312.114 48.6591L311.109 48.9831L310.84 48.1459L312.012 47.7679L311.094 44.9216L312.266 44.5436L313.184 47.39L314.691 46.904L314.961 47.7412L313.454 48.2271L315.505 54.5896C315.667 55.0919 315.775 55.4267 315.997 55.5401C316.218 55.6536 316.44 55.767 316.775 55.659C316.942 55.605 317.277 55.4971 317.444 55.4431L317.714 56.2802C317.158 56.2748 316.823 56.3828 316.488 56.4907Z" fill="white"/>
<path d="M320.163 55.3043C319.66 55.4663 319.104 55.4608 318.661 55.2339C318.218 55.0071 317.889 54.5588 317.673 53.889C317.565 53.5542 317.511 53.3867 317.403 53.0519C317.349 52.8844 317.408 52.4956 317.522 52.2742C317.635 52.0527 317.749 51.8313 317.862 51.6099C317.976 51.3884 318.089 51.167 318.37 50.8916C318.651 50.6162 318.932 50.3408 319.046 50.1193C319.327 49.8439 319.608 49.5685 320.056 49.2391L319.84 48.5693C319.57 47.7322 319.408 47.2299 319.133 46.949C318.857 46.6681 318.468 46.6087 318.134 46.7167C317.296 46.9867 317.123 47.597 317.447 48.6015L317.555 48.9364L316.383 49.3144C316.329 49.1469 316.329 49.1469 316.275 48.9795C316.005 48.1424 316.124 47.3646 316.351 46.9218C316.578 46.4789 317.194 46.0955 318.031 45.8255C318.868 45.5556 319.425 45.561 319.922 45.9553C320.419 46.3496 320.802 46.9654 321.18 48.1374L322.583 52.4906C322.799 53.1603 323.015 53.8301 323.345 54.2784L322.34 54.6023L321.795 53.4843C321.735 53.8732 321.676 54.262 321.449 54.7049C321.114 54.8129 320.665 55.1423 320.163 55.3043ZM320.341 54.1377C320.676 54.0297 320.957 53.7543 321.071 53.5329C321.352 53.2574 321.411 52.8686 321.525 52.6471L320.607 49.8008C320.607 49.8008 320.607 49.8008 320.439 49.8548C320.326 50.0762 319.991 50.1842 320.045 50.3516C319.878 50.4056 319.764 50.6271 319.651 50.8485C319.537 51.0699 319.37 51.1239 319.424 51.2913C319.256 51.3453 319.31 51.5128 319.197 51.7342C319.083 51.9556 319.083 51.9556 318.97 52.1771C319.024 52.3445 318.856 52.3985 318.91 52.5659C318.964 52.7333 318.797 52.7873 318.851 52.9548C318.905 53.1222 318.959 53.2896 319.013 53.4571C319.175 53.9594 319.45 54.2402 319.671 54.3537C319.671 54.3537 320.006 54.2457 320.341 54.1377Z" fill="white"/>
<path d="M327.2 53.0358C326.865 53.1438 326.363 53.3058 326.141 53.1924C325.752 53.1329 325.531 53.0195 325.309 52.9061C325.088 52.7926 324.813 52.5118 324.705 52.1769C324.429 51.896 324.321 51.5612 324.213 51.2263C324.105 50.8914 323.997 50.5566 323.835 50.0543L323.188 48.0451C322.972 47.3754 322.81 46.8731 322.815 46.3168C322.653 45.8145 322.713 45.4256 322.772 45.0368C322.832 44.6479 323.113 44.3725 323.226 44.1511C323.507 43.8756 323.842 43.7676 324.345 43.6056C324.68 43.4977 325.014 43.3897 325.403 43.4491C325.792 43.5085 325.96 43.4546 326.181 43.568C326.403 43.6814 326.624 43.7949 326.732 44.1297C326.954 44.2432 327.061 44.578 327.169 44.9129C327.277 45.2478 327.385 45.5826 327.493 45.9175L327.655 46.4198L326.65 46.7438L326.489 46.2415C326.219 45.4043 325.889 44.956 325.614 44.6751C325.338 44.3943 324.949 44.3348 324.447 44.4968C323.945 44.6588 323.664 44.9342 323.604 45.3231C323.545 45.7119 323.593 46.4356 323.917 47.4402L324.727 49.9517C325.051 50.9563 325.38 51.4046 325.709 51.8529C325.985 52.1338 326.374 52.1932 326.876 52.0312C327.044 51.9773 327.211 51.9233 327.325 51.7018C327.492 51.6478 327.606 51.4264 327.552 51.259C327.665 51.0375 327.611 50.8701 327.557 50.7027C327.503 50.5353 327.449 50.3678 327.509 49.979C327.455 49.8115 327.347 49.4767 327.239 49.1418L327.077 48.6395L328.082 48.3155L328.244 48.8178C328.352 49.1527 328.46 49.4876 328.567 49.8224C328.675 50.1573 328.562 50.3787 328.67 50.7136C328.61 51.1024 328.664 51.2699 328.551 51.4913C328.437 51.7127 328.324 51.9341 327.989 52.0421C327.87 52.8199 327.535 52.9279 327.2 53.0358Z" fill="white"/>
<path d="M333.054 51.1465C332.384 51.3624 331.995 51.303 331.552 51.0761C331.277 50.7952 330.948 50.347 330.732 49.6772L328.68 43.3148L327.508 43.6928L327.238 42.8556L328.41 42.4777L327.493 39.6313L328.665 39.2533L329.583 42.0997L331.09 41.6137L331.36 42.4509L329.853 42.9368L331.904 49.2993C332.066 49.8016 332.174 50.1364 332.395 50.2499C332.617 50.3633 332.838 50.4767 333.173 50.3687C333.341 50.3147 333.676 50.2068 333.843 50.1528L334.113 50.9899C333.724 50.9305 333.389 51.0385 333.054 51.1465Z" fill="white"/>
<path d="M337.408 49.7427C336.738 49.9587 336.014 50.0072 335.517 49.6129C334.853 49.2726 334.524 48.8243 334.254 47.9871L335.151 47.3283C335.367 47.998 335.696 48.4463 336.139 48.6732C336.582 48.9001 336.971 48.9595 337.306 48.8515C337.641 48.7435 337.921 48.4681 338.202 48.1927C338.316 47.9713 338.375 47.5824 338.268 47.2475C338.052 46.5778 337.555 46.1835 336.501 45.7838L335.005 45.1571C334.395 44.9842 334.119 44.7034 333.677 44.4765C333.401 44.1956 333.126 43.9148 332.964 43.4125C332.748 42.7428 332.753 42.1864 333.148 41.6896C333.375 41.2467 333.823 40.9173 334.493 40.7013C335.163 40.4854 335.719 40.4908 336.216 40.8851C336.713 41.2794 337.042 41.7277 337.426 42.3435L336.696 42.9483C336.481 42.2786 336.205 41.9977 335.93 41.7168C335.654 41.436 335.265 41.3765 334.93 41.4845C334.595 41.5925 334.315 41.8679 334.201 42.0894C334.088 42.3108 334.028 42.6996 334.136 43.0345C334.244 43.3694 334.298 43.5368 334.573 43.8177C334.795 43.9311 335.07 44.212 335.459 44.2714L337.177 45.0115C337.398 45.1249 337.62 45.2384 337.841 45.3518C338.063 45.4652 338.284 45.5787 338.506 45.6921C338.727 45.8055 339.002 46.0864 339.056 46.2538C339.164 46.5887 339.386 46.7021 339.494 47.037C339.71 47.7067 339.704 48.263 339.364 48.9273C338.526 49.1973 338.078 49.5267 337.408 49.7427Z" fill="white"/>
<path d="M384.416 34.4019L380.367 21.8445L383.382 20.8726C383.884 20.7106 384.386 20.5486 384.943 20.5541C385.332 20.6135 385.721 20.6729 386.164 20.8998C386.439 21.1807 386.714 21.4616 386.99 21.7424C387.265 22.0233 387.427 22.5256 387.589 23.0279C387.751 23.5302 387.859 23.865 387.854 24.4213C387.794 24.8102 387.735 25.199 387.675 25.5879C387.616 25.9768 387.335 26.2522 386.886 26.5816C386.605 26.857 386.157 27.1864 385.654 27.3484L383.812 27.9424L385.756 33.9699L384.416 34.4019ZM383.542 27.1052L385.05 26.6193C385.887 26.3493 386.335 26.0199 386.562 25.577C386.789 25.1342 386.741 24.4104 386.471 23.5733C386.147 22.5687 385.764 21.953 385.321 21.7261C384.878 21.4992 384.321 21.4938 383.484 21.7637L381.977 22.2497L383.542 27.1052Z" fill="white"/>
<path d="M391.946 31.9727L389.031 22.9314L390.203 22.5534L390.581 23.7254C390.754 23.1151 390.981 22.6723 391.262 22.3969C391.543 22.1214 391.824 21.846 392.326 21.684C392.493 21.63 392.493 21.63 392.493 21.63L392.871 22.8021C392.704 22.8561 392.482 22.7426 392.315 22.7966C391.645 23.0126 391.083 23.5634 390.964 24.3411L393.177 31.2059L391.838 31.6378L391.946 31.9727Z" fill="white"/>
<path d="M393.345 20.2461L392.859 18.7393L394.032 18.3613L394.518 19.8682L393.345 20.2461ZM396.638 30.4595L393.723 21.4182L394.895 21.0402L397.81 30.0815L396.638 30.4595Z" fill="white"/>
<path d="M401.888 28.954C401.553 29.062 401.05 29.224 400.829 29.1106C400.44 29.0511 400.218 28.9377 399.997 28.8243C399.776 28.7108 399.5 28.43 399.392 28.0951C399.117 27.8142 399.009 27.4794 398.901 27.1445C398.793 26.8096 398.685 26.4748 398.523 25.9725L397.875 23.9633C397.659 23.2936 397.497 22.7913 397.503 22.235C397.341 21.7327 397.4 21.3438 397.46 20.955C397.519 20.5661 397.8 20.2907 397.914 20.0692C398.195 19.7938 398.53 19.6858 399.032 19.5238C399.367 19.4159 399.702 19.3079 400.091 19.3673C400.48 19.4268 400.647 19.3727 400.869 19.4862C401.09 19.5996 401.312 19.7131 401.42 20.0479C401.641 20.1614 401.749 20.4962 401.857 20.8311C401.965 21.166 402.073 21.5008 402.181 21.8357L402.343 22.338L401.338 22.662L401.176 22.1597C400.906 21.3225 400.577 20.8742 400.301 20.5933C400.026 20.3125 399.637 20.253 399.135 20.415C398.632 20.577 398.351 20.8524 398.292 21.2413C398.232 21.6301 398.281 22.3539 398.605 23.3585L399.414 25.8699C399.738 26.8745 400.068 27.3228 400.397 27.7711C400.672 28.052 401.061 28.1114 401.564 27.9494C401.731 27.8954 401.899 27.8415 402.012 27.62C402.18 27.566 402.293 27.3446 402.239 27.1772C402.353 26.9557 402.299 26.7883 402.245 26.6209C402.191 26.4534 402.304 26.232 402.196 25.8972C402.142 25.7297 402.034 25.3949 401.926 25.06L401.764 24.5577L402.769 24.2337L402.931 24.736C403.039 25.0709 403.147 25.4058 403.255 25.7406C403.363 26.0755 403.249 26.2969 403.357 26.6318C403.298 27.0206 403.352 27.1881 403.238 27.4095C403.125 27.6309 403.012 27.8523 402.677 27.9603C402.725 28.6841 402.39 28.7921 401.888 28.954Z" fill="white"/>
<path d="M402.564 17.2772L402.078 15.7703L403.25 15.3923L403.736 16.8992L402.564 17.2772ZM405.857 27.4905L402.942 18.4492L404.114 18.0712L407.029 27.1125L405.857 27.4905Z" fill="white"/>
<path d="M408.868 26.5184L405.953 17.4771L407.125 17.0991L407.449 18.1037C407.903 17.218 408.465 16.6671 409.303 16.3972C409.805 16.2352 410.194 16.2946 410.469 16.5755C410.745 16.8563 411.074 17.3046 411.236 17.8069L413.557 25.0065L412.385 25.3845L410.118 18.3523C409.956 17.85 409.848 17.5152 409.626 17.4017C409.405 17.2883 409.184 17.1749 408.849 17.2829C408.346 17.4448 407.952 17.9417 407.611 18.606L409.987 25.973L408.814 26.3509L408.868 26.5184Z" fill="white"/>
<path d="M418.718 26.6706C418.215 26.8326 417.88 26.9406 417.378 27.1026C417.043 27.2106 416.654 27.1511 416.265 27.0917C415.876 27.0322 415.655 26.9188 415.433 26.8054C415.212 26.6919 415.104 26.3571 415.05 26.1896C414.888 25.6873 414.948 25.2985 415.175 24.8556C415.402 24.4128 415.629 23.9699 415.909 23.6945C415.575 23.8025 415.353 23.689 415.132 23.5756C414.91 23.4622 414.689 23.3487 414.635 23.1813C414.473 22.679 414.646 22.0687 415.046 21.0156C414.214 20.7293 413.388 19.8867 413.01 18.7146C412.848 18.2123 412.74 17.8775 412.799 17.4886C412.859 17.0998 412.918 16.7109 412.978 16.322C413.037 15.9332 413.318 15.6578 413.599 15.3823C413.88 15.1069 414.215 14.9989 414.718 14.8369C415.555 14.567 416.333 14.6858 417.105 15.361C417.219 15.1396 417.332 14.9182 417.446 14.6967C417.559 14.4753 417.84 14.1999 417.953 13.9785L418.067 13.757L418.672 14.4862C418.504 14.5402 418.223 14.8156 417.942 15.091C417.661 15.3665 417.548 15.5879 417.434 15.8093C417.488 15.9768 417.764 16.2576 417.872 16.5925C417.98 16.9274 418.255 17.2082 418.309 17.3756C418.633 18.3802 418.682 19.104 418.395 19.9357C418.222 20.546 417.66 21.0968 416.823 21.3668C416.655 21.4208 416.488 21.4748 416.321 21.5288C416.153 21.5828 415.986 21.6368 415.932 21.4693C415.932 21.4693 415.986 21.6368 415.872 21.8582C415.759 22.0796 415.813 22.2471 415.813 22.2471C415.813 22.2471 415.699 22.4685 415.753 22.6359C415.807 22.8033 415.807 22.8033 415.861 22.9708C415.915 23.1382 416.304 23.1976 416.806 23.0356C416.974 22.9817 417.141 22.9277 417.698 22.9331C418.033 22.8251 418.422 22.8846 418.422 22.8846C419.145 22.836 419.869 22.7875 420.312 23.0143C420.755 23.2412 421.084 23.6895 421.246 24.1918C421.462 24.8615 421.457 25.4178 420.895 25.9687C420.171 26.0172 419.555 26.4006 418.718 26.6706ZM418.448 25.8334C419.118 25.6175 419.399 25.3421 419.68 25.0666C419.961 24.7912 420.02 24.4023 419.912 24.0675C419.804 23.7326 419.583 23.6192 419.307 23.3383C419.086 23.2249 418.53 23.2194 417.806 23.268L416.579 23.4785C415.904 24.2508 415.731 24.8611 415.893 25.3634C416.001 25.6982 416.276 25.9791 416.611 25.8711C417.054 26.098 417.778 26.0494 418.448 25.8334ZM416.445 20.1948C416.78 20.0868 416.947 20.0328 417.061 19.8113C417.174 19.5899 417.342 19.5359 417.455 19.3145C417.569 19.0931 417.515 18.9256 417.461 18.7582C417.407 18.5908 417.466 18.2019 417.412 18.0345C417.358 17.8671 417.25 17.5322 417.196 17.3648C416.711 15.8579 415.938 15.1827 414.933 15.5067C414.766 15.5607 414.431 15.6686 414.318 15.8901C414.204 16.1115 414.037 16.1655 413.923 16.3869C413.81 16.6084 413.864 16.7758 413.75 16.9972C413.804 17.1646 413.745 17.5535 413.799 17.7209C413.853 17.8884 413.907 18.0558 414.015 18.3907C414.668 19.8436 415.44 20.5187 416.445 20.1948Z" fill="white"/>
<path d="M466.314 7.99783L462.266 -4.55957L465.28 -5.53147C465.782 -5.69346 466.285 -5.85544 466.841 -5.84999C467.23 -5.79055 467.619 -5.73111 468.062 -5.50424C468.337 -5.22337 468.613 -4.94251 468.888 -4.66164C469.164 -4.38077 469.326 -3.87846 469.488 -3.37617C469.65 -2.87387 469.758 -2.53902 469.752 -1.98273C469.693 -1.59387 469.633 -1.205 469.574 -0.816144C469.514 -0.427285 469.233 -0.151857 468.785 0.17756C468.504 0.452982 468.055 0.782393 467.553 0.944378L465.711 1.53833L467.654 7.56588L466.314 7.99783ZM465.273 0.755165L466.781 0.269197C467.618 -0.000778035 468.066 -0.330194 468.293 -0.773048C468.52 -1.2159 468.472 -1.93962 468.202 -2.77678C467.878 -3.78137 467.495 -4.39711 467.052 -4.62399C466.609 -4.85086 466.052 -4.85631 465.215 -4.58633L463.708 -4.10037L465.273 0.755165Z" fill="white"/>
<path d="M475.249 5.30329C474.746 5.46527 474.19 5.45981 473.747 5.23294C473.304 5.00607 472.975 4.55778 472.759 3.88805C472.651 3.55319 472.597 3.38576 472.489 3.05089C472.435 2.88346 472.494 2.49459 472.608 2.27316C472.721 2.05174 472.835 1.83032 472.948 1.60889C473.062 1.38746 473.175 1.16603 473.456 0.890603C473.737 0.615181 474.018 0.33976 474.132 0.118333C474.413 -0.157089 474.694 -0.432506 475.142 -0.761923L474.926 -1.43165C474.656 -2.26881 474.494 -2.7711 474.219 -3.05197C473.943 -3.33284 473.554 -3.39228 473.219 -3.28429C472.382 -3.01431 472.209 -2.40404 472.533 -1.39945L472.641 -1.06458L471.469 -0.686612C471.415 -0.854044 471.415 -0.854045 471.361 -1.02148C471.091 -1.85864 471.21 -2.63635 471.437 -3.0792C471.664 -3.52206 472.28 -3.90547 473.117 -4.17545C473.954 -4.44542 474.511 -4.43998 475.008 -4.04567C475.505 -3.65137 475.888 -3.03564 476.266 -1.86362L477.669 2.48961C477.885 3.15934 478.101 3.82907 478.263 4.33137L477.258 4.65534L476.713 3.53731C476.654 3.92617 476.594 4.31503 476.367 4.75788C476.032 4.86587 475.751 5.1413 475.249 5.30329ZM475.26 4.1907C475.595 4.08271 475.708 3.86128 475.989 3.58586C476.27 3.31043 476.33 2.92158 476.443 2.70015L475.525 -0.146191C475.525 -0.146191 475.525 -0.146187 475.358 -0.0921924C475.244 0.129234 474.91 0.237219 474.964 0.404651C474.796 0.458646 474.683 0.680084 474.569 0.901512C474.456 1.12294 474.288 1.17692 474.342 1.34435C474.175 1.39835 474.229 1.56579 474.115 1.78721C474.002 2.00864 474.002 2.00863 473.888 2.23006C473.942 2.39749 473.775 2.45149 473.829 2.61892C473.883 2.78635 473.715 2.84035 473.769 3.00779C473.823 3.17522 473.877 3.34265 473.931 3.51008C474.093 4.01238 474.368 4.29324 474.59 4.40667C474.757 4.35268 474.925 4.29869 475.26 4.1907Z" fill="white"/>
<path d="M479.875 3.62478L476.96 -5.41655L478.132 -5.7945L478.51 -4.62248C478.683 -5.23277 478.91 -5.67563 479.191 -5.95105C479.472 -6.22647 479.753 -6.5019 480.256 -6.66388C480.423 -6.71788 480.423 -6.71787 480.423 -6.71787L480.801 -5.54584C480.633 -5.49185 480.412 -5.60529 480.245 -5.55129C479.575 -5.33531 479.013 -4.78447 478.894 -4.00675L481.107 2.85796L479.767 3.28991L479.875 3.62478Z" fill="white"/>
<path d="M486.632 1.63108C485.962 1.84706 485.573 1.78762 485.13 1.56075C484.855 1.27988 484.526 0.831575 484.31 0.161846L482.258 -6.20057L481.086 -5.8226L480.816 -6.65976L481.988 -7.03773L481.071 -9.88408L482.243 -10.262L483.161 -7.41568L484.668 -7.90164L484.938 -7.06448L483.431 -6.57852L485.482 -0.216109C485.644 0.286188 485.752 0.621046 485.973 0.734482C486.195 0.847919 486.416 0.961345 486.751 0.853355C486.919 0.79936 487.254 0.69139 487.421 0.637395L487.691 1.47455C487.302 1.41511 486.967 1.52309 486.632 1.63108Z" fill="white"/>
<path d="M488.923 0.708317L486.008 -8.33301L487.18 -8.71098L487.504 -7.70639C487.958 -8.5921 488.52 -9.14293 489.357 -9.41291C489.86 -9.57489 490.249 -9.51547 490.524 -9.2346C490.799 -8.95373 491.129 -8.50544 491.291 -8.00314L493.612 -0.80357L492.44 -0.425598L490.173 -7.45774C490.011 -7.96004 489.903 -8.29488 489.681 -8.40832C489.46 -8.52176 489.238 -8.63521 488.903 -8.52722C488.401 -8.36524 488.006 -7.86838 487.666 -7.2041L490.041 0.162916L488.869 0.540888L488.923 0.708317Z" fill="white"/>
</g>
<defs>
<filter id="filter0_f_126_124" x="387.405" y="33.6201" width="182.073" height="169.396" filterUnits="userSpaceOnUse" color-interpolation-filters="sRGB">
<feFlood flood-opacity="0" result="BackgroundImageFix"/>
<feBlend mode="normal" in="SourceGraphic" in2="BackgroundImageFix" result="shape"/>
<feGaussianBlur stdDeviation="14.6294" result="effect1_foregroundBlur_126_124"/>
</filter>
<filter id="filter1_f_126_124" x="92.8325" y="119.374" width="224.47" height="224.441" filterUnits="userSpaceOnUse" color-interpolation-filters="sRGB">
<feFlood flood-opacity="0" result="BackgroundImageFix"/>
<feBlend mode="normal" in="SourceGraphic" in2="BackgroundImageFix" result="shape"/>
<feGaussianBlur stdDeviation="16.7808" result="effect1_foregroundBlur_126_124"/>
</filter>
<linearGradient id="paint0_linear_126_124" x1="126.643" y1="414.518" x2="612.79" y2="257.776" gradientUnits="userSpaceOnUse">
<stop stop-color="#BCBEFF"/>
<stop offset="0.151" stop-color="#A3A7F5"/>
<stop offset="0.3866" stop-color="#8289E8"/>
<stop offset="0.6124" stop-color="#6A73DF"/>
<stop offset="0.8221" stop-color="#5C66D9"/>
<stop offset="1" stop-color="#5761D7"/>
</linearGradient>
<radialGradient id="paint1_radial_126_124" cx="0" cy="0" r="1" gradientUnits="userSpaceOnUse" gradientTransform="translate(248.555 269.245) rotate(-17.8702) scale(327.875 327.8)">
<stop stop-color="#42E8E0"/>
<stop offset="0.1055" stop-color="#37B6BF"/>
<stop offset="0.2197" stop-color="#2C87A1"/>
<stop offset="0.338" stop-color="#235F87"/>
<stop offset="0.4587" stop-color="#1C3F72"/>
<stop offset="0.5824" stop-color="#162561"/>
<stop offset="0.7105" stop-color="#121355"/>
<stop offset="0.8458" stop-color="#10084E"/>
<stop offset="1" stop-color="#0F054C"/>
</radialGradient>
<radialGradient id="paint2_radial_126_124" cx="0" cy="0" r="1" gradientUnits="userSpaceOnUse" gradientTransform="translate(247.334 265.413) rotate(-17.8702) scale(327.875 327.8)">
<stop stop-color="#42E8E0"/>
<stop offset="0.1055" stop-color="#37B6BF"/>
<stop offset="0.2197" stop-color="#2C87A1"/>
<stop offset="0.338" stop-color="#235F87"/>
<stop offset="0.4587" stop-color="#1C3F72"/>
<stop offset="0.5824" stop-color="#162561"/>
<stop offset="0.7105" stop-color="#121355"/>
<stop offset="0.8458" stop-color="#10084E"/>
<stop offset="1" stop-color="#0F054C"/>
</radialGradient>
<linearGradient id="paint3_linear_126_124" x1="459.623" y1="383.077" x2="265.899" y2="246.744" gradientUnits="userSpaceOnUse">
<stop stop-color="#42E8E0"/>
<stop offset="0.1055" stop-color="#37B6BF"/>
<stop offset="0.2197" stop-color="#2C87A1"/>
<stop offset="0.338" stop-color="#235F87"/>
<stop offset="0.4587" stop-color="#1C3F72"/>
<stop offset="0.5824" stop-color="#162561"/>
<stop offset="0.7105" stop-color="#121355"/>
<stop offset="0.8458" stop-color="#10084E"/>
<stop offset="1" stop-color="#0F054C"/>
</linearGradient>
<radialGradient id="paint4_radial_126_124" cx="0" cy="0" r="1" gradientUnits="userSpaceOnUse" gradientTransform="translate(483.043 179.86) rotate(-17.8702) scale(111.559 111.534)">
<stop stop-color="#42E8E0"/>
<stop offset="0.1055" stop-color="#37B6BF"/>
<stop offset="0.2197" stop-color="#2C87A1"/>
<stop offset="0.338" stop-color="#235F87"/>
<stop offset="0.4587" stop-color="#1C3F72"/>
<stop offset="0.5824" stop-color="#162561"/>
<stop offset="0.7105" stop-color="#121355"/>
<stop offset="0.8458" stop-color="#10084E" stop-opacity="0"/>
<stop offset="1" stop-color="#0F054C" stop-opacity="0"/>
</radialGradient>
<radialGradient id="paint5_radial_126_124" cx="0" cy="0" r="1" gradientUnits="userSpaceOnUse" gradientTransform="translate(205.073 231.679) rotate(-17.8702) scale(78.621 78.6032)">
<stop stop-color="#42E8E0"/>
<stop offset="0.1055" stop-color="#37B6BF"/>
<stop offset="0.2197" stop-color="#2C87A1"/>
<stop offset="0.338" stop-color="#235F87"/>
<stop offset="0.4587" stop-color="#1C3F72"/>
<stop offset="0.5824" stop-color="#162561"/>
<stop offset="0.7105" stop-color="#121355"/>
<stop offset="0.8458" stop-color="#10084E"/>
<stop offset="1" stop-color="#0F054C"/>
</radialGradient>
<linearGradient id="paint6_linear_126_124" x1="259.823" y1="376.554" x2="523.12" y2="291.663" gradientUnits="userSpaceOnUse">
<stop stop-color="#0F054C"/>
<stop offset="0.1542" stop-color="#10084E"/>
<stop offset="0.2895" stop-color="#121355"/>
<stop offset="0.4176" stop-color="#162561"/>
<stop offset="0.5413" stop-color="#1C3F72"/>
<stop offset="0.662" stop-color="#235F87"/>
<stop offset="0.7803" stop-color="#2C87A1"/>
<stop offset="0.8945" stop-color="#37B6BF"/>
<stop offset="1" stop-color="#42E8E0"/>
</linearGradient>
<clipPath id="clip0_126_124">
<rect width="588.948" height="479.356" fill="white" transform="translate(0 180.725) rotate(-17.8702)"/>
</clipPath>
</defs>
</svg>
